<?xml version="1.0" encoding="iso-8859-1"?>
<!-- Generator: Adobe Illustrator 16.0.0, SVG Export Plug-In . SVG Version: 6.00 Build 0)  -->
<!DOCTYPE svg PUBLIC "-//W3C//DTD SVG 1.1//EN" "http://www.w3.org/Graphics/SVG/1.1/DTD/svg11.dtd">
<svg version="1.1" id="Layer_1" xmlns="http://www.w3.org/2000/svg" xmlns:xlink="http://www.w3.org/1999/xlink" x="0px" y="0px"
	 width="300px" height="300px" viewBox="0 0 300 300" style="enable-background:new 0 0 300 300;" xml:space="preserve">
<g>
	<g>
		<g>
			<path style="fill:#122948;" d="M31.453,130.387c5.923,0,11.845,0,17.768,0c4.775,0,4.775-7.405,0-7.405
				c-5.923,0-11.845,0-17.768,0C26.678,122.981,26.678,130.387,31.453,130.387L31.453,130.387z"/>
		</g>
	</g>
	<g>
		<g>
			<path style="fill:#122948;" d="M65.937,203.005c7.456,0,14.912,0,22.367,0c4.775,0,4.775-7.404,0-7.404
				c-7.456,0-14.912,0-22.367,0C61.161,195.601,61.161,203.005,65.937,203.005L65.937,203.005z"/>
		</g>
	</g>
	<g>
		<g>
			<path style="fill:#122948;" d="M35.183,168.794c9.401,0,18.801,0,28.202,0c4.775,0,4.775-7.404,0-7.404
				c-9.401,0-18.801,0-28.202,0C30.407,161.39,30.407,168.794,35.183,168.794L35.183,168.794z"/>
		</g>
	</g>
	<g>
		<path style="fill:#ED932B;" d="M29.578,268.365c-0.747-0.691-1.12-1.508-1.12-2.451v-16.059c0-1.466,0.299-2.854,0.899-4.164
			c0.599-1.309,1.442-2.467,2.528-3.473c1.086-1.005,2.336-1.785,3.75-2.341c1.414-0.555,2.913-0.833,4.498-0.833
			c1.47,0,2.885,0.252,4.242,0.755c1.358,0.502,2.591,1.215,3.7,2.137c1.063-0.922,2.269-1.635,3.615-2.137
			c1.346-0.503,2.777-0.755,4.293-0.755c1.584,0,3.106,0.278,4.565,0.833c1.459,0.556,2.743,1.336,3.852,2.341
			c1.108,1.027,1.98,2.195,2.614,3.504c0.633,1.31,0.95,2.688,0.95,4.133v16.059c0,0.943-0.374,1.76-1.12,2.451
			c-0.339,0.314-0.735,0.561-1.188,0.738c-0.453,0.179-0.928,0.268-1.425,0.268c-1.064,0-1.958-0.335-2.682-1.006
			c-0.724-0.67-1.086-1.487-1.086-2.451v-15.87c0-0.503-0.119-0.989-0.356-1.461s-0.572-0.885-1.001-1.241
			c-0.407-0.356-0.877-0.629-1.408-0.817c-0.532-0.188-1.081-0.283-1.646-0.283c-1.041,0-1.968,0.346-2.783,1.037
			c-0.814,0.671-1.267,1.509-1.357,2.515c0.022,0.042,0.034,0.157,0.034,0.346v15.682c0,0.984-0.362,1.813-1.086,2.482
			c-0.339,0.314-0.735,0.561-1.188,0.738c-0.453,0.179-0.928,0.268-1.425,0.268c-1.064,0-1.958-0.335-2.682-1.006
			c-0.724-0.67-1.086-1.498-1.086-2.482v-15.493l-0.068-0.22v-0.032c0-0.502-0.108-0.994-0.322-1.477
			c-0.215-0.481-0.515-0.9-0.899-1.257c-0.385-0.356-0.832-0.634-1.341-0.833s-1.035-0.299-1.578-0.299
			c-1.064,0-1.992,0.31-2.783,0.928c-0.792,0.618-1.279,1.388-1.459,2.31c0.045,0.294,0.068,0.482,0.068,0.565l-0.136,15.901
			c0,0.943-0.374,1.76-1.12,2.451c-0.725,0.671-1.584,1.006-2.58,1.006C31.195,269.371,30.302,269.036,29.578,268.365z"/>
		<path style="fill:#ED932B;" d="M74.957,234.803c-0.814-0.754-1.222-1.655-1.222-2.703c0-0.502,0.107-0.989,0.322-1.461
			c0.215-0.472,0.514-0.885,0.899-1.241c0.792-0.733,1.765-1.1,2.919-1.1c0.565,0,1.097,0.094,1.595,0.282
			c0.498,0.188,0.938,0.461,1.324,0.817c0.384,0.356,0.684,0.77,0.899,1.241c0.215,0.472,0.322,0.959,0.322,1.461
			c0,1.048-0.407,1.949-1.222,2.703c-0.385,0.356-0.832,0.634-1.341,0.833c-0.509,0.199-1.035,0.298-1.578,0.298
			C76.744,235.934,75.771,235.557,74.957,234.803z M75.195,268.648c-0.77-0.67-1.154-1.487-1.154-2.451v-23.664
			c0-0.46,0.102-0.905,0.306-1.335s0.486-0.802,0.849-1.116c0.339-0.314,0.747-0.565,1.222-0.754s0.973-0.283,1.493-0.283
			c1.019,0,1.901,0.346,2.647,1.037c0.317,0.314,0.571,0.687,0.764,1.116s0.289,0.875,0.289,1.335v23.664
			c0,0.964-0.362,1.781-1.086,2.451c-0.725,0.671-1.607,1.006-2.647,1.006C76.812,269.654,75.918,269.319,75.195,268.648z"/>
		<path style="fill:#ED932B;" d="M96.968,268.569c-2.048-0.764-3.841-1.849-5.38-3.252c-1.561-1.403-2.778-3.027-3.648-4.871
			c-0.872-1.844-1.307-3.813-1.307-5.908c0-2.116,0.429-4.122,1.29-6.018c0.86-1.896,2.07-3.557,3.632-4.981
			c1.561-1.425,3.36-2.53,5.396-3.315c2.037-0.786,4.208-1.179,6.517-1.179c2.194,0,4.276,0.356,6.245,1.068
			c1.969,0.713,3.666,1.729,5.092,3.049c0.904,0.859,1.357,1.822,1.357,2.891c0,1.006-0.453,1.854-1.357,2.546
			c-0.386,0.294-0.798,0.519-1.239,0.676s-0.844,0.235-1.205,0.235c-0.701,0-1.414-0.209-2.138-0.628
			c-0.34-0.188-0.939-0.587-1.8-1.194c-0.905-0.587-1.799-0.99-2.681-1.21c-0.883-0.22-1.879-0.33-2.987-0.33
			c-1.177,0.042-2.274,0.299-3.292,0.77c-1.018,0.472-1.913,1.096-2.682,1.87c-0.747,0.775-1.335,1.65-1.765,2.624
			c-0.43,0.975-0.645,1.964-0.645,2.97c0,1.026,0.215,2.038,0.645,3.032c0.43,0.996,1.029,1.881,1.799,2.656
			c0.792,0.796,1.725,1.425,2.8,1.886c1.074,0.461,2.211,0.69,3.411,0.69c1.018,0,1.951-0.109,2.8-0.329
			c0.849-0.221,1.714-0.623,2.596-1.21c0.182-0.126,0.526-0.361,1.036-0.707c0.509-0.346,1.001-0.618,1.476-0.817
			c0.476-0.199,0.962-0.299,1.46-0.299c0.385,0,0.803,0.084,1.256,0.252c0.452,0.168,0.859,0.397,1.222,0.691
			c0.859,0.691,1.29,1.519,1.29,2.482c0,0.503-0.113,1.006-0.34,1.508c-0.227,0.503-0.565,0.964-1.018,1.383
			c-1.426,1.32-3.123,2.337-5.092,3.049s-4.051,1.068-6.245,1.068C101.182,269.717,99.016,269.335,96.968,268.569z"/>
		<path style="fill:#ED932B;" d="M121.627,268.365c-0.747-0.648-1.12-1.456-1.12-2.42v-34.348c0-0.964,0.384-1.781,1.153-2.451
			c0.747-0.649,1.63-0.975,2.647-0.975c1.019,0,1.901,0.325,2.647,0.975c0.725,0.67,1.087,1.487,1.087,2.451l-0.034,18.101
			l10.861-9.271c0.679-0.607,1.493-0.911,2.443-0.911c0.476,0,0.956,0.094,1.442,0.283c0.486,0.188,0.911,0.439,1.272,0.754
			c0.362,0.314,0.65,0.691,0.866,1.131c0.215,0.44,0.322,0.88,0.322,1.32c0,0.461-0.102,0.906-0.306,1.336
			c-0.203,0.43-0.498,0.812-0.883,1.146l-9.537,8.14l11.438,9.836c0.679,0.587,1.018,1.331,1.018,2.231
			c0,0.942-0.373,1.781-1.119,2.514c-0.747,0.734-1.607,1.101-2.58,1.101c-1.132-0.042-2.06-0.398-2.783-1.068l-12.456-10.717v8.422
			c0,0.985-0.362,1.792-1.086,2.42c-0.34,0.314-0.736,0.561-1.188,0.738c-0.453,0.179-0.928,0.268-1.426,0.268
			C123.244,269.371,122.351,269.036,121.627,268.365z"/>
		<path style="fill:#ED932B;" d="M160.149,268.522c-2.015-0.796-3.779-1.896-5.295-3.3c-1.539-1.424-2.732-3.063-3.581-4.918
			s-1.272-3.818-1.272-5.893s0.43-4.048,1.289-5.924c0.86-1.874,2.048-3.524,3.564-4.949c1.516-1.403,3.28-2.503,5.295-3.3
			c2.014-0.796,4.129-1.194,6.347-1.194c2.24,0,4.361,0.393,6.364,1.179c2.002,0.785,3.772,1.891,5.312,3.315
			c1.516,1.425,2.698,3.069,3.547,4.934c0.849,1.865,1.272,3.845,1.272,5.939v11.659c0,0.985-0.373,1.823-1.12,2.514
			c-0.724,0.713-1.629,1.069-2.715,1.069c-0.883,0-1.641-0.226-2.274-0.676s-1.063-1.053-1.289-1.808
			c-2.762,1.697-5.793,2.546-9.097,2.546C164.278,269.717,162.163,269.319,160.149,268.522z M169.976,262.096
			c1.097-0.429,2.064-1.031,2.901-1.807c0.814-0.774,1.448-1.666,1.9-2.671c0.453-1.006,0.68-2.074,0.68-3.206
			c0-1.131-0.227-2.199-0.68-3.205c-0.452-1.006-1.086-1.896-1.9-2.671c-0.814-0.755-1.776-1.347-2.885-1.776
			c-1.109-0.429-2.274-0.644-3.496-0.644c-1.199,0-2.342,0.209-3.428,0.628c-1.086,0.42-2.049,1.017-2.886,1.792
			s-1.481,1.665-1.935,2.671c-0.452,1.006-0.679,2.074-0.679,3.205c0,1.132,0.227,2.2,0.679,3.206
			c0.453,1.005,1.098,1.896,1.935,2.671c0.815,0.775,1.766,1.378,2.852,1.807c1.086,0.43,2.24,0.645,3.462,0.645
			S168.877,262.525,169.976,262.096z"/>
		<path style="fill:#ED932B;" d="M190.459,234.803c-0.814-0.754-1.222-1.655-1.222-2.703c0-0.502,0.107-0.989,0.322-1.461
			s0.515-0.885,0.899-1.241c0.792-0.733,1.766-1.1,2.919-1.1c0.565,0,1.098,0.094,1.596,0.282c0.497,0.188,0.938,0.461,1.323,0.817
			s0.685,0.77,0.9,1.241c0.214,0.472,0.322,0.959,0.322,1.461c0,1.048-0.407,1.949-1.223,2.703c-0.385,0.356-0.831,0.634-1.34,0.833
			c-0.51,0.199-1.035,0.298-1.579,0.298C192.247,235.934,191.274,235.557,190.459,234.803z M190.697,268.648
			c-0.77-0.67-1.154-1.487-1.154-2.451v-23.664c0-0.46,0.102-0.905,0.306-1.335c0.203-0.43,0.486-0.802,0.849-1.116
			c0.339-0.314,0.746-0.565,1.222-0.754s0.973-0.283,1.493-0.283c1.019,0,1.901,0.346,2.647,1.037
			c0.316,0.314,0.571,0.687,0.764,1.116s0.289,0.875,0.289,1.335v23.664c0,0.964-0.362,1.781-1.087,2.451
			c-0.724,0.671-1.606,1.006-2.647,1.006C192.314,269.654,191.421,269.319,190.697,268.648z"/>
		<path style="fill:#ED932B;" d="M212.334,268.538c-2.002-0.785-3.773-1.891-5.312-3.315c-1.539-1.403-2.738-3.037-3.598-4.902
			c-0.86-1.864-1.29-3.834-1.29-5.908s0.43-4.048,1.29-5.924c0.859-1.874,2.059-3.524,3.598-4.949
			c1.538-1.425,3.31-2.53,5.312-3.315c2.003-0.786,4.124-1.179,6.364-1.179c2.285,0,4.135,0.336,5.55,1.006
			c1.413,0.671,2.573,1.697,3.479,3.08v-11.565c0-1.026,0.351-1.885,1.053-2.576c0.746-0.691,1.64-1.037,2.681-1.037
			c1.063,0,1.969,0.346,2.716,1.037c0.724,0.712,1.086,1.571,1.086,2.576v23.004c-0.022,2.054-0.464,3.997-1.324,5.83
			c-0.859,1.833-2.059,3.451-3.598,4.854c-1.516,1.404-3.281,2.499-5.295,3.284c-2.014,0.786-4.129,1.179-6.347,1.179
			C216.458,269.717,214.337,269.324,212.334,268.538z M222.211,262.096c1.098-0.429,2.064-1.031,2.902-1.807
			c0.837-0.774,1.481-1.666,1.935-2.671c0.452-1.006,0.679-2.074,0.679-3.206c0-1.131-0.232-2.199-0.695-3.205
			c-0.465-1.006-1.115-1.896-1.952-2.671c-0.814-0.755-1.776-1.347-2.885-1.776c-1.109-0.429-2.274-0.644-3.496-0.644
			c-1.199,0-2.354,0.215-3.462,0.644c-1.109,0.43-2.07,1.021-2.885,1.776c-0.838,0.775-1.488,1.665-1.952,2.671
			s-0.695,2.074-0.695,3.205c0,1.132,0.231,2.2,0.695,3.206c0.464,1.005,1.114,1.896,1.952,2.671
			c0.837,0.775,1.799,1.378,2.885,1.807c1.086,0.43,2.24,0.645,3.462,0.645C219.942,262.74,221.113,262.525,222.211,262.096z"/>
		<path style="fill:#ED932B;" d="M249.975,268.538c-2.002-0.785-3.773-1.891-5.312-3.315c-1.539-1.403-2.738-3.037-3.598-4.902
			c-0.86-1.864-1.29-3.834-1.29-5.908s0.43-4.048,1.29-5.924c0.859-1.874,2.059-3.524,3.598-4.949
			c1.538-1.425,3.31-2.53,5.312-3.315c2.003-0.786,4.124-1.179,6.364-1.179s4.373,0.398,6.398,1.194
			c2.024,0.797,3.795,1.896,5.312,3.3c1.516,1.425,2.703,3.075,3.563,4.949c0.859,1.876,1.29,3.85,1.29,5.924
			s-0.425,4.038-1.272,5.893c-0.849,1.854-2.043,3.494-3.581,4.918c-1.517,1.404-3.287,2.504-5.312,3.3
			c-2.025,0.797-4.158,1.194-6.398,1.194S251.978,269.324,249.975,268.538z M259.852,262.096c1.098-0.429,2.064-1.031,2.902-1.807
			c0.837-0.774,1.481-1.666,1.935-2.671c0.452-1.006,0.679-2.074,0.679-3.206c0-1.131-0.232-2.199-0.695-3.205
			c-0.465-1.006-1.115-1.896-1.952-2.671c-0.814-0.755-1.776-1.347-2.885-1.776c-1.109-0.429-2.274-0.644-3.496-0.644
			c-1.199,0-2.354,0.215-3.462,0.644c-1.109,0.43-2.07,1.021-2.885,1.776c-0.838,0.775-1.488,1.665-1.952,2.671
			s-0.695,2.074-0.695,3.205c0,1.132,0.231,2.2,0.695,3.206c0.464,1.005,1.114,1.896,1.952,2.671
			c0.837,0.775,1.799,1.378,2.885,1.807c1.086,0.43,2.24,0.645,3.462,0.645C257.583,262.74,258.754,262.525,259.852,262.096z"/>
	</g>
	<g>
	</g>
	<g>
		<path style="fill:#122948;" d="M158.403,42.244c0,0-3.009,1.202-1.983,10.871c0.725,6.824,3.015,18.63,8.567,24.772
			c2.064,2.284-1.549-0.264-0.862,7.271c0.33,3.629,1.826,6.777,2.755,7.642c0,0,7.612,13.931,23.435,16.583
			c0,0,39.784,4.359,29.092-40.094l-1.744-2.959L170.006,4.073c0,0-3.686-4.762-10.703-0.006
			C159.303,4.067,146.789,22.251,158.403,42.244z"/>
	</g>
	<polyline style="fill:#132947;" points="154.277,117.61 169.08,111 177.026,111 188.511,118.413 172.013,128.027 155.4,117.542 	
		"/>
	<path style="fill:none;stroke:#122948;stroke-width:0.7124;stroke-miterlimit:10;" d="M210.748,130.713"/>
	<g>
		<path style="fill:#ED932B;" d="M173.482,130.672c-0.812,0.444-2.127,0.444-2.939,0l-66.12-36.234c-0.811-0.444-0.811-1.166,0-1.61
			l66.12-36.233c0.813-0.444,2.128-0.444,2.938,0l66.12,36.233c0.813,0.444,0.813,1.166,0,1.61L173.482,130.672z"/>
		<g>
			<path style="fill:#122948;" d="M172.438,126.881c-0.272,0.085,0.249,0.483-0.627,0.003c-0.677-0.371-1.354-0.742-2.029-1.112
				c-2.421-1.326-4.841-2.652-7.261-3.979c-7.685-4.211-15.369-8.422-23.053-12.633c-7.467-4.092-14.934-8.184-22.4-12.275
				c-2.509-1.375-5.018-2.75-7.526-4.125c-0.734-0.402-1.468-0.805-2.202-1.207c-0.933-0.511-0.911-0.94-0.128,0.095
				c0,1.323,0,2.646,0,3.969c-1.077,1.426,0.216,0.047,1.241-0.514c2.034-1.115,4.067-2.229,6.101-3.344
				c6.285-3.444,12.57-6.888,18.856-10.333c12.124-6.644,24.248-13.288,36.373-19.932c0.896-0.491,1.79-0.981,2.686-1.472
				c-0.368,0.202-1.388-0.262-0.6,0.17c0.558,0.306,1.115,0.611,1.674,0.917c4.776,2.618,9.553,5.235,14.33,7.853
				c13.459,7.375,26.917,14.75,40.376,22.125c2.208,1.21,4.415,2.42,6.623,3.63c0.677,0.371,1.354,0.741,2.029,1.112
				c0.861,0.472,0.613,0.708-0.084-0.212c0-1.323,0-2.646,0-3.969c0.697-0.92,0.945-0.684,0.084-0.212
				c-0.676,0.371-1.353,0.741-2.029,1.112c-2.42,1.326-4.84,2.652-7.26,3.979c-7.685,4.211-15.368,8.422-23.053,12.633
				c-11.021,6.039-22.04,12.078-33.06,18.117c-4.448,2.437-0.48,9.229,3.969,6.79c11.31-6.198,22.62-12.396,33.93-18.594
				c7.606-4.168,15.213-8.337,22.819-12.505c3.813-2.09,8.71-3.81,11.391-7.35c0.75-0.992,0.75-2.978,0-3.969
				c-2.136-2.821-5.393-4.063-8.457-5.743c-6.004-3.291-12.009-6.581-18.013-9.871c-12.566-6.886-25.132-13.772-37.698-20.658
				c-3.385-1.855-6.928-4.343-10.896-2.168c-2.911,1.595-5.822,3.19-8.733,4.786c-13.41,7.348-26.819,14.697-40.229,22.045
				c-4.239,2.323-8.479,4.646-12.718,6.969c-2.542,1.393-4.671,2.295-6.443,4.64c-0.75,0.993-0.75,2.976,0,3.969
				c2.675,3.541,7.578,5.262,11.389,7.35c8.187,4.486,16.374,8.973,24.56,13.459c8.015,4.392,16.03,8.785,24.046,13.177
				c4.087,2.24,9.224,6.397,14.113,4.86C179.348,132.948,177.288,125.355,172.438,126.881z"/>
		</g>
	</g>
	<g>
		<path style="fill:#ED932B;" d="M239.602,92.829l-66.12-36.233c-0.431-0.236-1.003-0.345-1.567-0.33c0,0,1.137,74.643,1.568,74.407
			l66.119-36.234C240.414,93.994,240.414,93.273,239.602,92.829z"/>
		<g>
			<path style="fill:#122948;" d="M241.586,89.434c-11.31-6.198-22.62-12.396-33.93-18.594c-7.606-4.168-15.214-8.336-22.82-12.505
				c-3.724-2.041-7.667-4.975-11.877-5.861c-2.448-0.516-5.018,1.112-4.977,3.792c0.194,12.764,0.408,25.527,0.641,38.29
				c0.157,8.682,0.321,17.365,0.536,26.046c0.076,3.098-0.99,10.369,1.543,12.852c1.29,1.264,3.196,1.474,4.765,0.615
				c11.31-6.198,22.62-12.396,33.93-18.594c7.606-4.168,15.213-8.337,22.819-12.505c3.813-2.09,8.71-3.81,11.391-7.35
				c0.75-0.992,0.75-2.978,0-3.969c-0.203-0.268-0.406-0.537-0.609-0.805c-3.02-3.988-9.854-0.077-6.791,3.969
				c0.203,0.269,0.406,0.537,0.609,0.805c0-1.323,0-2.646,0-3.969c0.697-0.92,0.945-0.684,0.084-0.212
				c-0.676,0.371-1.353,0.741-2.029,1.112c-2.42,1.326-4.84,2.652-7.26,3.979c-7.685,4.211-15.368,8.422-23.053,12.633
				c-11.021,6.039-22.04,12.078-33.06,18.117c1.588,0.205,3.177,0.41,4.765,0.615c0.658,0.645,1.151,3.544,1.049,1.739
				c-0.048-0.844-0.074-1.689-0.104-2.535c-0.102-2.901-0.169-5.804-0.237-8.706c-0.205-8.61-0.363-17.221-0.52-25.832
				c-0.219-12.098-0.42-24.196-0.604-36.294c-1.659,1.264-3.317,2.528-4.977,3.792c3.6,0.758,7.358,3.622,10.635,5.417
				c7.685,4.211,15.369,8.422,23.053,12.633c11.021,6.039,22.04,12.078,33.061,18.117C242.066,98.662,246.034,91.871,241.586,89.434
				z"/>
		</g>
	</g>
	<g>
		<polyline style="fill:#FCFCFC;" points="174.34,131.006 239.602,92.829 268.292,108.138 204.595,145.162 174.34,131.006 		"/>
		<g>
			<path style="fill:#122948;" d="M176.324,134.401c21.754-12.726,43.508-25.451,65.262-38.177c-1.323,0-2.646,0-3.969,0
				c9.563,5.104,19.127,10.207,28.69,15.31c0-2.263,0-4.527,0-6.79c-21.232,12.341-42.465,24.682-63.697,37.023
				c1.323,0,2.646,0,3.969,0c-10.085-4.719-20.17-9.438-30.255-14.156c-4.563-2.135-8.56,4.643-3.969,6.79
				c9.073,4.246,18.147,8.491,27.222,12.737c2.646,1.238,4.905,2.638,7.73,0.996c3.129-1.819,6.258-3.637,9.386-5.456
				c17.861-10.381,35.723-20.763,53.583-31.145c2.48-1.441,2.63-5.387,0-6.79c-8.882-4.74-17.764-9.479-26.646-14.219
				c-2.56-1.366-4.536-1.956-7.17-0.415c-3.341,1.955-6.683,3.909-10.023,5.864c-18.027,10.545-36.055,21.091-54.082,31.637
				C167.981,130.169,171.938,136.967,176.324,134.401L176.324,134.401z"/>
		</g>
	</g>
	<g>
		<polygon style="fill:#FCFCFC;" points="172.402,133.849 173.351,204.69 103.039,166.53 102.826,94.387 		"/>
		<g>
			<path style="fill:#122948;" d="M168.471,133.849c0.315,23.614,0.632,47.228,0.948,70.842c1.972-1.132,3.944-2.264,5.916-3.396
				c-23.438-12.72-46.875-25.439-70.312-38.16c0.649,1.132,1.298,2.264,1.948,3.396c-0.071-24.048-0.142-48.096-0.212-72.144
				c-1.972,1.132-3.944,2.264-5.917,3.395c23.192,13.154,46.384,26.308,69.576,39.462c4.417,2.505,8.379-4.289,3.969-6.79
				c-23.191-13.154-46.384-26.308-69.576-39.462c-2.579-1.463-5.925,0.383-5.917,3.395c0.071,24.048,0.142,48.096,0.212,72.144
				c0.004,1.353,0.739,2.739,1.948,3.396c23.437,12.72,46.875,25.439,70.312,38.16c2.569,1.394,5.957-0.332,5.916-3.396
				c-0.315-23.614-0.632-47.228-0.948-70.842C176.267,128.782,168.402,128.775,168.471,133.849z"/>
		</g>
	</g>
	<g>
		<polygon style="fill:#FCFCFC;" points="174,131.953 174,204.566 237.922,161.615 238.066,126.022 204.475,145.285 		"/>
		<g>
			<path style="fill:#122948;" d="M170.408,131.953c0,24.204,0,48.409,0,72.613c0,2.836,3.394,5.095,5.916,3.396
				c17.931-12.08,35.86-24.16,53.791-36.24c3.031-2.042,6.063-4.084,9.094-6.127c2.804-1.889,2.815-4.097,2.82-7.189
				c0.018-10.794,0.036-21.589,0.054-32.383c0.005-2.997-3.339-4.878-5.916-3.395c-11.155,6.421-22.311,12.842-33.465,19.263
				c1.323,0,2.646,0,3.969,0c-10.115-4.444-20.23-8.888-30.347-13.332c-4.597-2.02-8.603,4.754-3.969,6.79
				c5.964,2.62,11.928,5.24,17.892,7.86c3.457,1.519,6.915,3.038,10.373,4.557c2.003,0.88,4,2.095,6.168,0.848
				c11.115-6.398,22.231-12.797,33.348-19.196c-1.972-1.131-3.944-2.263-5.916-3.395c-0.021,11.864-0.04,23.729-0.06,35.593
				c0.648-1.132,1.298-2.264,1.947-3.396c-21.251,14.317-42.502,28.635-63.752,42.951c1.972,1.132,3.944,2.264,5.916,3.396
				c0-24.204,0-48.409,0-72.613C178.271,126.882,170.408,126.882,170.408,131.953z"/>
		</g>
	</g>
	<path style="fill:#ED932B;" d="M181.389,143.598l0.018,51.577l49.615-33.485l0.31-23.574l-19.918,13.82
		c0,0-5.733,3.054-11.47,0.124L181.389,143.598z"/>
	<polyline style="fill:#122948;" points="156.449,119.736 169.252,113.665 176.389,113.077 186.839,119.736 172.635,129.43 
		156.449,119.736 	"/>
	<g>
		<path style="fill:#122948;" d="M82.131,106.154c0,0-3.009,1.203-1.983,10.871c0.725,6.824,3.014,18.631,8.566,24.773
			c2.065,2.284-1.547-0.265-0.862,7.271c0.331,3.629,1.826,6.776,2.755,7.642c0,0,7.613,13.932,23.434,16.584
			c0,0,42.407,0,28.315-41.717l-6.563-9.1l-5.646-8.159L93.734,67.983c0,0-3.686-4.762-10.704-0.006
			C83.031,67.978,70.517,86.161,82.131,106.154z"/>
	</g>
	<path style="fill:#ED932B;stroke:#212121;stroke-width:0.0836;stroke-miterlimit:10;" d="M116.113,126.069
		c0,0-12.817-0.877-27.571-13.999c0,0-1.122,12.423,4.382,19.679c6.736,8.879,15.014,11.964,20.716,13.066l-17.125-0.025
		c0,0-6.552,7.928,14.564,18.047c0,0,4.113,2.366,11.669,1.611c8.372-0.836,17.548-4.871,15.746-25.406c0,0-0.659-3.382-2.411-6.428
		c-4.374-7.601-13.041-18.049-20.829-27.752c-9.053-11.28-22.885-29.936-22.885-29.936s-2.59-1.318-3.793,0.296
		c-2.373,3.186-7.714,15.54,4.392,29.34C92.968,104.563,109.523,123.583,116.113,126.069z"/>
	<path style="fill:#FCFCFC;" d="M88.745,112.334c0,0,3.052,2.54,8.708,6.448c5.093,3.519,11.683,6.557,20.976,7.673
		c0,0-14.726,1.992-19.144,0.104c0,0,8.368,11.39,21.619,19.065l-16.397,3.591c0,0,9.452,16.42,32.834,4.961
		c0,0-2.651,6.58-9.017,8.823c-3.396,1.195-4.781,1.4-6.653,1.617c-2.638,0.306-6.828-0.503-9.768-1.37
		c0,0-7.403-3.142-12.341-7.849c-3.312-3.155-5.083-6.952-2.998-10.598l17.511,0.091C114.076,144.891,86.169,140.183,88.745,112.334
		z"/>
	<path style="fill:#FCFCFC;" d="M192.612,156.455l-0.655,31.342L222,167.337v-14.449l-6.213,5.563c0,0-8.199,6.428-17.341,1.814
		L192.612,156.455z"/>
	<g>
		<path style="fill:#122948;" d="M79.8,282.009l-1.539,8.689c-0.256,1.505-1.011,2.787-2.263,3.849
			c-1.252,1.061-2.633,1.591-4.142,1.591c-0.86,0-1.63-0.188-2.309-0.564c-0.272-0.15-0.434-0.384-0.487-0.699
			c-0.053-0.316,0.019-0.625,0.215-0.926c0.211-0.301,0.487-0.504,0.826-0.609c0.34-0.105,0.675-0.071,1.007,0.102
			c0.332,0.173,0.773,0.26,1.324,0.26c0.55,0,1.124-0.188,1.72-0.564s1.045-0.873,1.347-1.489c-0.724,0.361-1.486,0.541-2.286,0.541
			c-1.313,0-2.354-0.466-3.124-1.399c-0.77-0.933-1.041-2.054-0.815-3.362l0.951-5.417c0.06-0.331,0.23-0.613,0.509-0.847
			s0.588-0.35,0.928-0.35c0.339,0,0.607,0.116,0.803,0.35c0.196,0.233,0.264,0.516,0.204,0.847l-0.973,5.417
			c-0.121,0.646,0.011,1.2,0.396,1.659s0.901,0.688,1.55,0.688s1.245-0.229,1.788-0.688c0.543-0.459,0.875-1.013,0.996-1.659
			l0.928-5.417c0.045-0.24,0.151-0.451,0.317-0.632c0.332-0.376,0.671-0.564,1.019-0.564s0.596,0.075,0.747,0.226
			C79.755,281.249,79.875,281.572,79.8,282.009z"/>
		<path style="fill:#122948;" d="M83.354,282.505c1.282-1.128,2.667-1.692,4.153-1.692c1.486,0,2.682,0.564,3.587,1.692
			c0.83,1.114,1.109,2.445,0.837,3.995c-0.271,1.55-1.026,2.866-2.263,3.95c-1.237,1.128-2.61,1.692-4.119,1.692
			s-2.708-0.564-3.599-1.692c-0.83-1.099-1.109-2.415-0.837-3.95C81.384,284.966,82.131,283.634,83.354,282.505z M89.532,286.478
			c0.166-0.933-0.008-1.7-0.521-2.302c-0.453-0.633-1.086-0.948-1.901-0.948c-0.814,0-1.573,0.313-2.274,0.937
			c-0.702,0.625-1.14,1.399-1.313,2.325c-0.173,0.925-0.015,1.7,0.476,2.324c0.49,0.625,1.135,0.937,1.935,0.937
			s1.554-0.312,2.263-0.937C88.906,288.189,89.351,287.411,89.532,286.478z"/>
		<path style="fill:#122948;" d="M102.546,281.162c0.271-0.233,0.577-0.35,0.917-0.35s0.6,0.116,0.781,0.35
			c0.181,0.233,0.241,0.516,0.181,0.847l-0.928,5.349c-0.227,1.295-0.883,2.404-1.969,3.329c-1.086,0.926-2.282,1.389-3.587,1.389
			s-2.339-0.463-3.101-1.389c-0.762-0.925-1.022-2.034-0.781-3.329l0.928-5.349c0.06-0.331,0.227-0.613,0.498-0.847
			s0.573-0.35,0.905-0.35c0.332,0,0.596,0.112,0.792,0.339c0.196,0.226,0.264,0.512,0.204,0.857l-0.951,5.349
			c-0.106,0.633,0.03,1.174,0.407,1.626c0.377,0.451,0.886,0.677,1.528,0.677c0.641,0,1.226-0.226,1.754-0.677
			c0.528-0.452,0.853-0.993,0.973-1.626l0.951-5.349C102.108,281.678,102.275,281.396,102.546,281.162z"/>
		<path style="fill:#122948;" d="M108.17,281.162c0.279-0.233,0.586-0.35,0.918-0.35c0.33,0,0.596,0.12,0.791,0.361
			c0.227,0.256,0.279,0.587,0.158,0.993c0.182-0.15,0.393-0.294,0.635-0.43c0.949-0.616,1.945-0.925,2.986-0.925
			c0.332,0,0.596,0.116,0.793,0.35c0.195,0.233,0.26,0.516,0.191,0.847c-0.066,0.331-0.236,0.617-0.508,0.857
			c-0.271,0.241-0.604,0.361-0.996,0.361c-0.846,0-1.705,0.496-2.58,1.489c-0.559,0.632-0.988,1.272-1.291,1.919l-0.746,4.266
			c-0.061,0.331-0.23,0.613-0.51,0.847s-0.584,0.35-0.916,0.35s-0.598-0.116-0.793-0.35s-0.264-0.516-0.203-0.847l1.584-8.893
			C107.729,281.678,107.891,281.396,108.17,281.162z"/>
		<path style="fill:#122948;" d="M127.487,280.813c1.539,0,2.746,0.557,3.621,1.67c0.875,1.114,1.177,2.445,0.905,3.995
			s-1.045,2.882-2.319,3.995c-1.275,1.113-2.675,1.678-4.198,1.692c-1.147-0.03-2.113-0.354-2.897-0.97l-0.679,3.949
			c-0.076,0.346-0.257,0.64-0.544,0.881c-0.286,0.24-0.596,0.36-0.928,0.36s-0.6-0.12-0.804-0.36
			c-0.203-0.241-0.275-0.535-0.215-0.881l2.331-13.091c0.061-0.346,0.23-0.64,0.51-0.88c0.279-0.241,0.577-0.361,0.894-0.361
			c0.317,0,0.569,0.09,0.759,0.271c0.188,0.181,0.29,0.406,0.306,0.678C125.3,281.128,126.386,280.813,127.487,280.813z
			 M128.234,288.734c0.739-0.587,1.177-1.339,1.313-2.257c0.166-0.918-0.004-1.682-0.509-2.291c-0.506-0.609-1.166-0.914-1.98-0.914
			c-0.815,0-1.593,0.309-2.331,0.926c-0.71,0.662-1.132,1.422-1.268,2.279c-0.196,0.873-0.038,1.625,0.475,2.257
			s1.178,0.948,1.992,0.948S127.51,289.366,128.234,288.734z"/>
		<path style="fill:#122948;" d="M136.212,281.162c0.279-0.233,0.585-0.35,0.917-0.35c0.331,0,0.596,0.12,0.792,0.361
			c0.226,0.256,0.278,0.587,0.158,0.993c0.181-0.15,0.393-0.294,0.634-0.43c0.95-0.616,1.946-0.925,2.987-0.925
			c0.332,0,0.596,0.116,0.792,0.35s0.261,0.516,0.192,0.847c-0.067,0.331-0.237,0.617-0.509,0.857
			c-0.271,0.241-0.604,0.361-0.996,0.361c-0.845,0-1.705,0.496-2.58,1.489c-0.559,0.632-0.988,1.272-1.29,1.919l-0.747,4.266
			c-0.061,0.331-0.23,0.613-0.509,0.847c-0.279,0.233-0.585,0.35-0.917,0.35s-0.597-0.116-0.792-0.35
			c-0.196-0.233-0.265-0.516-0.204-0.847l1.585-8.893C135.771,281.678,135.933,281.396,136.212,281.162z"/>
		<path style="fill:#122948;" d="M144.212,290.879l1.652-8.825c0.061-0.346,0.234-0.64,0.521-0.88
			c0.287-0.241,0.604-0.361,0.951-0.361c0.347,0,0.618,0.124,0.814,0.372s0.264,0.538,0.204,0.869l-1.63,8.825
			c-0.061,0.347-0.234,0.64-0.521,0.88c-0.287,0.241-0.604,0.361-0.95,0.361c-0.348,0-0.623-0.12-0.826-0.361
			C144.224,291.519,144.152,291.226,144.212,290.879z M148.988,278.036c-0.061,0.347-0.234,0.644-0.521,0.892
			c-0.287,0.248-0.604,0.372-0.951,0.372s-0.619-0.124-0.814-0.372c-0.196-0.248-0.265-0.545-0.204-0.892l0.068-0.474
			c0.075-0.347,0.256-0.64,0.543-0.881c0.286-0.24,0.6-0.361,0.939-0.361c0.339,0,0.611,0.121,0.814,0.361
			c0.204,0.241,0.275,0.534,0.215,0.881L148.988,278.036z"/>
		<path style="fill:#122948;" d="M153.945,292.12l-0.249-0.045c-0.121,0-0.219-0.03-0.294-0.091
			c-0.182-0.165-0.295-0.293-0.34-0.383l-0.022-0.023c-0.03-0.09-0.053-0.149-0.068-0.18l-2.149-8.803
			c-0.076-0.301-0.027-0.602,0.146-0.903c0.174-0.301,0.427-0.515,0.759-0.643c0.331-0.128,0.641-0.132,0.928-0.012
			c0.286,0.12,0.46,0.331,0.521,0.632l1.539,6.185l3.689-6.185c0.181-0.301,0.434-0.512,0.758-0.632s0.63-0.12,0.917,0
			c0.271,0.136,0.441,0.354,0.509,0.654c0.068,0.302,0.012,0.603-0.17,0.903l-5.251,8.803c-0.015,0.03-0.041,0.067-0.079,0.112
			c-0.037,0.045-0.057,0.071-0.057,0.079s-0.008,0.016-0.022,0.022c-0.015,0.008-0.034,0.026-0.057,0.057s-0.041,0.053-0.057,0.067
			l-0.045,0.022c-0.091,0.091-0.158,0.136-0.204,0.136c-0.09,0.061-0.158,0.098-0.203,0.113h-0.022
			c-0.046,0.045-0.113,0.067-0.204,0.067l-0.249,0.045H153.945z"/>
		<path style="fill:#122948;" d="M165.487,292.075c-1.509,0-2.686-0.557-3.53-1.67c-0.846-1.144-1.124-2.461-0.838-3.95
			c0.241-1.52,0.981-2.844,2.219-3.973c1.252-1.098,2.633-1.647,4.142-1.647c1.086,0,2.029,0.316,2.829,0.948
			c0.105-0.271,0.283-0.497,0.532-0.678s0.531-0.271,0.849-0.271c0.316,0,0.565,0.116,0.747,0.35
			c0.181,0.233,0.24,0.516,0.181,0.847l-1.539,8.825c-0.076,0.346-0.245,0.636-0.51,0.869c-0.264,0.233-0.554,0.35-0.871,0.35
			c-0.316,0-0.565-0.091-0.747-0.271c-0.181-0.181-0.279-0.414-0.294-0.7C167.615,291.752,166.559,292.075,165.487,292.075z
			 M164.809,284.13c-0.725,0.647-1.162,1.422-1.313,2.325c-0.151,0.902,0.007,1.667,0.476,2.291
			c0.467,0.624,1.112,0.937,1.935,0.937s1.565-0.309,2.229-0.926c0.709-0.616,1.15-1.376,1.324-2.279
			c0.173-0.902,0.015-1.674-0.476-2.313s-1.128-0.959-1.912-0.959C166.287,283.205,165.533,283.514,164.809,284.13z"/>
		<path style="fill:#122948;" d="M177.958,276.637c0.286-0.24,0.6-0.361,0.939-0.361s0.611,0.121,0.814,0.361
			c0.204,0.241,0.275,0.534,0.215,0.88l-0.497,3.296h0.588c0.347,0,0.619,0.124,0.815,0.372c0.195,0.248,0.264,0.546,0.203,0.892
			c-0.061,0.347-0.234,0.64-0.521,0.881c-0.287,0.24-0.604,0.36-0.95,0.36h-0.589l-1.177,6.252c0.347,0,0.622,0.125,0.826,0.373
			c0.203,0.248,0.271,0.545,0.203,0.892c-0.067,0.346-0.245,0.64-0.531,0.88c-0.287,0.241-0.597,0.361-0.928,0.361
			c-0.694,0-1.245-0.244-1.652-0.733s-0.552-1.08-0.431-1.772l1.2-6.252h-0.68c-0.347,0-0.618-0.124-0.814-0.372
			s-0.264-0.542-0.204-0.88c0.061-0.339,0.234-0.633,0.521-0.881c0.286-0.248,0.603-0.372,0.95-0.372h0.656l0.498-3.296
			C177.49,277.171,177.671,276.878,177.958,276.637z"/>
		<path style="fill:#122948;" d="M186.83,292.098c-1.539-0.015-2.738-0.571-3.599-1.67c-0.859-1.099-1.146-2.423-0.859-3.973
			c0.286-1.55,1.06-2.878,2.319-3.983c1.26-1.106,2.648-1.659,4.165-1.659c1.516,0,2.7,0.493,3.553,1.479s1.181,2.238,0.985,3.758
			c0,0.12-0.023,0.226-0.068,0.315c-0.076,0.271-0.241,0.489-0.498,0.655c-0.257,0.165-0.536,0.248-0.837,0.248h-7.221
			c0,0.587,0.166,1.083,0.498,1.489c0.182,0.271,0.46,0.501,0.838,0.688c0.377,0.188,0.762,0.298,1.154,0.327
			c1.071,0.091,1.969-0.195,2.693-0.857c0.256-0.24,0.523-0.361,0.803-0.361s0.468,0.034,0.566,0.102
			c0.098,0.068,0.215,0.174,0.351,0.316c0.136,0.144,0.192,0.357,0.17,0.644s-0.14,0.534-0.351,0.744
			c-0.68,0.632-1.373,1.08-2.083,1.344C188.701,291.966,187.841,292.098,186.83,292.098z M188.505,282.957
			c-0.875,0.045-1.622,0.315-2.24,0.813c-0.619,0.496-1.041,1.023-1.268,1.579h6.405c-0.03-0.526-0.298-1.038-0.804-1.534
			C190.093,283.317,189.396,283.032,188.505,282.957z"/>
		<path style="fill:#122948;" d="M208.309,290.856c-1.192,0.827-2.543,1.241-4.052,1.241s-2.742-0.561-3.7-1.682
			s-1.294-2.479-1.007-4.074c0.286-1.595,1.108-2.952,2.467-4.073c1.357-1.121,2.784-1.682,4.277-1.682
			c1.494,0,2.701,0.414,3.621,1.241c0.227,0.211,0.332,0.485,0.317,0.824c-0.016,0.338-0.147,0.64-0.396,0.902
			c-0.249,0.264-0.547,0.418-0.894,0.463c-0.348,0.045-0.642-0.037-0.883-0.248c-0.528-0.481-1.233-0.723-2.116-0.723
			s-1.717,0.323-2.501,0.971c-0.785,0.646-1.26,1.422-1.426,2.324c-0.166,0.903,0.03,1.682,0.588,2.336
			c0.559,0.655,1.279,0.982,2.162,0.982s1.678-0.248,2.388-0.745c0.302-0.21,0.618-0.293,0.95-0.248s0.577,0.203,0.736,0.474
			c0.158,0.271,0.185,0.576,0.079,0.914C208.813,290.394,208.61,290.661,208.309,290.856z"/>
		<path style="fill:#122948;" d="M212.993,282.505c1.282-1.128,2.667-1.692,4.153-1.692c1.485,0,2.682,0.564,3.587,1.692
			c0.83,1.114,1.109,2.445,0.838,3.995s-1.026,2.866-2.264,3.95c-1.237,1.128-2.61,1.692-4.119,1.692s-2.709-0.564-3.599-1.692
			c-0.83-1.099-1.109-2.415-0.838-3.95C211.024,284.966,211.771,283.634,212.993,282.505z M219.172,286.478
			c0.166-0.933-0.008-1.7-0.521-2.302c-0.453-0.633-1.086-0.948-1.901-0.948c-0.814,0-1.573,0.313-2.274,0.937
			c-0.702,0.625-1.14,1.399-1.313,2.325c-0.174,0.925-0.016,1.7,0.475,2.324c0.49,0.625,1.136,0.937,1.936,0.937
			s1.554-0.312,2.264-0.937C218.546,288.189,218.991,287.411,219.172,286.478z"/>
		<path style="fill:#122948;" d="M232.186,281.162c0.272-0.233,0.577-0.35,0.917-0.35s0.6,0.116,0.781,0.35
			c0.181,0.233,0.241,0.516,0.181,0.847l-0.928,5.349c-0.227,1.295-0.883,2.404-1.969,3.329c-1.087,0.926-2.283,1.389-3.588,1.389
			c-1.306,0-2.339-0.463-3.101-1.389c-0.762-0.925-1.022-2.034-0.781-3.329l0.929-5.349c0.06-0.331,0.226-0.613,0.497-0.847
			c0.272-0.233,0.573-0.35,0.905-0.35s0.597,0.112,0.793,0.339c0.195,0.226,0.264,0.512,0.203,0.857l-0.95,5.349
			c-0.105,0.633,0.03,1.174,0.407,1.626c0.377,0.451,0.887,0.677,1.527,0.677c0.642,0,1.227-0.226,1.755-0.677
			c0.527-0.452,0.852-0.993,0.973-1.626l0.951-5.349C231.748,281.678,231.914,281.396,232.186,281.162z"/>
		<path style="fill:#122948;" d="M237.811,281.162c0.279-0.233,0.585-0.35,0.917-0.35c0.331,0,0.596,0.12,0.792,0.361
			c0.226,0.256,0.278,0.587,0.158,0.993c0.181-0.15,0.393-0.294,0.634-0.43c0.95-0.616,1.946-0.925,2.987-0.925
			c0.332,0,0.596,0.116,0.792,0.35s0.261,0.516,0.192,0.847c-0.067,0.331-0.237,0.617-0.509,0.857
			c-0.271,0.241-0.604,0.361-0.996,0.361c-0.845,0-1.705,0.496-2.58,1.489c-0.559,0.632-0.988,1.272-1.29,1.919l-0.747,4.266
			c-0.061,0.331-0.23,0.613-0.509,0.847c-0.279,0.233-0.585,0.35-0.917,0.35s-0.597-0.116-0.792-0.35
			c-0.196-0.233-0.265-0.516-0.204-0.847l1.585-8.893C237.369,281.678,237.531,281.396,237.811,281.162z"/>
		<path style="fill:#122948;" d="M245.472,290.879l1.652-8.825c0.061-0.346,0.234-0.64,0.521-0.88
			c0.287-0.241,0.604-0.361,0.951-0.361c0.347,0,0.618,0.124,0.814,0.372s0.264,0.538,0.204,0.869l-1.63,8.825
			c-0.061,0.347-0.234,0.64-0.521,0.88c-0.287,0.241-0.604,0.361-0.95,0.361c-0.348,0-0.623-0.12-0.826-0.361
			C245.483,291.519,245.412,291.226,245.472,290.879z M250.248,278.036c-0.061,0.347-0.234,0.644-0.521,0.892
			c-0.287,0.248-0.604,0.372-0.951,0.372s-0.619-0.124-0.814-0.372c-0.196-0.248-0.265-0.545-0.204-0.892l0.068-0.474
			c0.075-0.347,0.256-0.64,0.543-0.881c0.286-0.24,0.6-0.361,0.939-0.361c0.339,0,0.611,0.121,0.814,0.361
			c0.204,0.241,0.275,0.534,0.215,0.881L250.248,278.036z"/>
		<path style="fill:#122948;" d="M256.154,292.098c-1.539-0.015-2.738-0.571-3.599-1.67c-0.859-1.099-1.146-2.423-0.859-3.973
			c0.286-1.55,1.06-2.878,2.319-3.983c1.26-1.106,2.648-1.659,4.165-1.659c1.516,0,2.7,0.493,3.553,1.479s1.181,2.238,0.985,3.758
			c0,0.12-0.023,0.226-0.068,0.315c-0.076,0.271-0.241,0.489-0.498,0.655c-0.257,0.165-0.536,0.248-0.837,0.248h-7.221
			c0,0.587,0.166,1.083,0.498,1.489c0.182,0.271,0.46,0.501,0.838,0.688c0.377,0.188,0.762,0.298,1.154,0.327
			c1.071,0.091,1.969-0.195,2.693-0.857c0.256-0.24,0.523-0.361,0.803-0.361s0.468,0.034,0.566,0.102
			c0.098,0.068,0.215,0.174,0.351,0.316c0.136,0.144,0.192,0.357,0.17,0.644s-0.14,0.534-0.351,0.744
			c-0.68,0.632-1.373,1.08-2.083,1.344C258.025,291.966,257.165,292.098,256.154,292.098z M257.829,282.957
			c-0.875,0.045-1.622,0.315-2.24,0.813c-0.619,0.496-1.041,1.023-1.268,1.579h6.405c-0.03-0.526-0.298-1.038-0.804-1.534
			C259.417,283.317,258.72,283.032,257.829,282.957z"/>
		<path style="fill:#122948;" d="M266.192,281.162c0.279-0.233,0.585-0.35,0.917-0.35c0.331,0,0.596,0.12,0.792,0.361
			c0.226,0.256,0.278,0.587,0.158,0.993c0.181-0.15,0.393-0.294,0.634-0.43c0.95-0.616,1.946-0.925,2.987-0.925
			c0.332,0,0.596,0.116,0.792,0.35s0.261,0.516,0.192,0.847c-0.067,0.331-0.237,0.617-0.509,0.857
			c-0.271,0.241-0.604,0.361-0.996,0.361c-0.845,0-1.705,0.496-2.58,1.489c-0.559,0.632-0.988,1.272-1.29,1.919l-0.747,4.266
			c-0.061,0.331-0.23,0.613-0.509,0.847c-0.279,0.233-0.585,0.35-0.917,0.35s-0.597-0.116-0.792-0.35
			c-0.196-0.233-0.265-0.516-0.204-0.847l1.585-8.893C265.751,281.678,265.913,281.396,266.192,281.162z"/>
	</g>
</g>
<g>
	<g>
		<g style="enable-background:new    ;">
			<g style="enable-background:new    ;">
				<defs>
					<path id="SVGID_1_" style="enable-background:new    ;" d="M204.144,129.313l-1.367,0.184c0.104-0.423,0.059-0.819-0.142-1.197
						l1.367-0.184C204.201,128.494,204.248,128.89,204.144,129.313z"/>
				</defs>
				<clipPath id="SVGID_2_">
					<use xlink:href="#SVGID_1_"  style="overflow:visible;"/>
				</clipPath>
				<g style="clip-path:url(#SVGID_2_);enable-background:new    ;">
					<path style="fill:#F09B3E;" d="M204.144,129.313l-1.367,0.184c0.104-0.423,0.059-0.819-0.142-1.197l1.367-0.184
						C204.201,128.494,204.248,128.89,204.144,129.313"/>
				</g>
			</g>
			<g style="enable-background:new    ;">
				<defs>
					<path id="SVGID_3_" style="enable-background:new    ;" d="M203.394,130.278l-1.366,0.184c0.384-0.227,0.634-0.542,0.749-0.966
						l1.367-0.184C204.028,129.736,203.778,130.052,203.394,130.278z"/>
				</defs>
				<clipPath id="SVGID_4_">
					<use xlink:href="#SVGID_3_"  style="overflow:visible;"/>
				</clipPath>
				<g style="clip-path:url(#SVGID_4_);enable-background:new    ;">
					<path style="fill:#F09B3E;" d="M203.394,130.278l-1.366,0.184c0.384-0.227,0.634-0.542,0.749-0.966l1.367-0.184
						C204.028,129.736,203.778,130.052,203.394,130.278"/>
				</g>
			</g>
			<g style="enable-background:new    ;">
				<defs>
					<path id="SVGID_5_" style="enable-background:new    ;" d="M201.033,127.502c0.456-0.062,0.912-0.123,1.367-0.184
						c0.063-0.008,0.126-0.013,0.189-0.013c0.142,0,0.285,0.019,0.431,0.059c0.423,0.115,0.747,0.366,0.981,0.752l-1.367,0.184
						c-0.234-0.386-0.559-0.636-0.98-0.751c-0.146-0.04-0.29-0.06-0.432-0.059C201.159,127.49,201.096,127.494,201.033,127.502z"/>
				</defs>
				<clipPath id="SVGID_6_">
					<use xlink:href="#SVGID_5_"  style="overflow:visible;"/>
				</clipPath>
				<g style="clip-path:url(#SVGID_6_);enable-background:new    ;">
					<path style="fill:#F09B3E;" d="M204.002,128.116l-1.367,0.184c-0.234-0.386-0.559-0.636-0.98-0.751
						c-0.146-0.04-0.29-0.06-0.432-0.059c-0.063,0-0.127,0.005-0.189,0.013l1.367-0.184c0.063-0.008,0.126-0.013,0.189-0.013
						c0.142,0,0.285,0.019,0.431,0.059C203.443,127.479,203.768,127.73,204.002,128.116"/>
				</g>
			</g>
			<g style="enable-background:new    ;">
				<defs>
					<path id="SVGID_7_" style="enable-background:new    ;" d="M203.642,136.883l-1.367,0.184
						c-0.033,0.005-0.067,0.007-0.102,0.007l1.367-0.184C203.574,136.89,203.608,136.887,203.642,136.883z"/>
				</defs>
				<clipPath id="SVGID_8_">
					<use xlink:href="#SVGID_7_"  style="overflow:visible;"/>
				</clipPath>
				<g style="clip-path:url(#SVGID_8_);enable-background:new    ;">
					<path style="fill:#F09B3E;" d="M203.642,136.883l-1.367,0.184c-0.033,0.005-0.067,0.007-0.102,0.007l1.367-0.184
						C203.574,136.89,203.608,136.887,203.642,136.883"/>
				</g>
			</g>
			<g style="enable-background:new    ;">
				<defs>
					<path id="SVGID_9_" style="enable-background:new    ;" d="M203.54,136.89l-1.367,0.184c-0.076,0-0.154-0.011-0.231-0.032
						c-0.226-0.062-0.396-0.197-0.515-0.403l1.367-0.184c0.118,0.207,0.289,0.341,0.514,0.403
						C203.386,136.879,203.464,136.89,203.54,136.89z"/>
				</defs>
				<clipPath id="SVGID_10_">
					<use xlink:href="#SVGID_9_"  style="overflow:visible;"/>
				</clipPath>
				<g style="clip-path:url(#SVGID_10_);enable-background:new    ;">
					<path style="fill:#F09B3E;" d="M203.54,136.89l-1.367,0.184c-0.076,0-0.154-0.011-0.231-0.032
						c-0.226-0.062-0.396-0.197-0.515-0.403l1.367-0.184c0.118,0.207,0.289,0.341,0.514,0.403
						C203.386,136.879,203.464,136.89,203.54,136.89"/>
				</g>
			</g>
			<g>
				<polygon style="fill:#F09B3F;" points="201.756,131.221 200.389,131.405 202.027,130.462 203.394,130.278 				"/>
			</g>
			<g style="enable-background:new    ;">
				<defs>
					<path id="SVGID_11_" style="enable-background:new    ;" d="M200.798,125.802c0.456-0.062,0.911-0.123,1.367-0.184
						c-0.41,0.055-0.81,0.195-1.196,0.423l-1.367,0.184C199.989,125.997,200.388,125.857,200.798,125.802z"/>
				</defs>
				<clipPath id="SVGID_12_">
					<use xlink:href="#SVGID_11_"  style="overflow:visible;"/>
				</clipPath>
				<g style="clip-path:url(#SVGID_12_);enable-background:new    ;">
					<path style="fill:#F09B3E;" d="M200.969,126.041l-1.367,0.184c0.201-0.119,0.406-0.213,0.614-0.285l1.367-0.184
						C201.375,125.827,201.17,125.922,200.969,126.041"/>
					<path style="fill:#F09A3D;" d="M201.583,125.756l-1.367,0.184c0.191-0.066,0.386-0.112,0.582-0.138l1.367-0.184
						C201.969,125.644,201.774,125.69,201.583,125.756"/>
				</g>
			</g>
			<g>
				<polygon style="fill:#F09B3F;" points="198.578,127.418 197.211,127.602 199.602,126.225 200.969,126.041 				"/>
			</g>
			<g>
				<polygon style="fill:#F19B3F;" points="202.794,136.454 201.427,136.638 196.902,128.755 198.27,128.571 				"/>
			</g>
			<g>
				<path style="fill:#EE9530;" d="M205.471,127.255c0.461,0.79,0.563,1.618,0.325,2.5c-0.237,0.883-0.755,1.551-1.543,2.004
					l-1.647,0.942l1.666,2.9c0.117,0.207,0.146,0.422,0.084,0.647c-0.062,0.226-0.196,0.406-0.402,0.524
					c-0.133,0.077-0.271,0.115-0.413,0.116c-0.076,0-0.154-0.011-0.232-0.032c-0.225-0.062-0.396-0.197-0.514-0.403l-4.524-7.883
					c-0.117-0.207-0.146-0.422-0.083-0.647c0.062-0.216,0.187-0.388,0.392-0.506l2.391-1.377c0.51-0.299,1.04-0.448,1.589-0.45
					c0.299-0.002,0.604,0.041,0.913,0.125C204.352,125.955,205.026,126.465,205.471,127.255z M204.144,129.313
					c0.104-0.423,0.058-0.819-0.142-1.196c-0.234-0.386-0.559-0.637-0.981-0.752c-0.146-0.04-0.289-0.06-0.431-0.059
					c-0.267,0.001-0.525,0.075-0.771,0.217l-1.639,0.942l1.575,2.757l1.638-0.943C203.778,130.052,204.028,129.736,204.144,129.313"
					/>
			</g>
			<g style="enable-background:new    ;">
				<defs>
					<path id="SVGID_13_" style="enable-background:new    ;" d="M198.27,128.571l-1.367,0.184
						c-0.117-0.206-0.146-0.422-0.083-0.647c0.062-0.216,0.187-0.388,0.392-0.505l1.367-0.184c-0.205,0.118-0.33,0.29-0.392,0.506
						C198.124,128.149,198.152,128.365,198.27,128.571z"/>
				</defs>
				<clipPath id="SVGID_14_">
					<use xlink:href="#SVGID_13_"  style="overflow:visible;"/>
				</clipPath>
				<g style="clip-path:url(#SVGID_14_);enable-background:new    ;">
					<path style="fill:#F09B3E;" d="M198.27,128.571l-1.367,0.184c-0.117-0.206-0.146-0.422-0.083-0.647
						c0.062-0.216,0.187-0.388,0.392-0.505l1.367-0.184c-0.205,0.118-0.33,0.29-0.392,0.506
						C198.124,128.149,198.152,128.365,198.27,128.571"/>
				</g>
			</g>
		</g>
		<g style="enable-background:new    ;">
			<g style="enable-background:new    ;">
				<defs>
					<path id="SVGID_15_" style="enable-background:new    ;" d="M245.082,103.657c0.455-0.062,0.911-0.123,1.367-0.184
						c-0.148,0.02-0.31,0.079-0.487,0.177l-1.367,0.184C244.772,103.736,244.934,103.677,245.082,103.657z"/>
				</defs>
				<clipPath id="SVGID_16_">
					<use xlink:href="#SVGID_15_"  style="overflow:visible;"/>
				</clipPath>
				<g style="clip-path:url(#SVGID_16_);enable-background:new    ;">
					<path style="fill:#F09B3E;" d="M245.962,103.65l-1.367,0.184c0.098-0.054,0.19-0.096,0.278-0.126l1.367-0.184
						C246.152,103.554,246.06,103.596,245.962,103.65"/>
					<path style="fill:#F09A3D;" d="M246.24,103.524l-1.367,0.184c0.072-0.025,0.142-0.042,0.209-0.051l1.367-0.184
						C246.382,103.482,246.313,103.499,246.24,103.524"/>
				</g>
			</g>
			<g style="enable-background:new    ;">
				<defs>
					<path id="SVGID_17_" style="enable-background:new    ;" d="M246.952,111.9c-0.036,0.005-0.071,0.007-0.107,0.007l-1.367,0.184
						c0.036,0,0.071-0.002,0.107-0.007C245.995,112.029,246.542,111.956,246.952,111.9z"/>
				</defs>
				<clipPath id="SVGID_18_">
					<use xlink:href="#SVGID_17_"  style="overflow:visible;"/>
				</clipPath>
				<g style="clip-path:url(#SVGID_18_);enable-background:new    ;">
					<path style="fill:#F09B3E;" d="M246.952,111.9l-1.367,0.184c-0.036,0.005-0.071,0.007-0.107,0.007l1.367-0.184
						C246.881,111.908,246.916,111.905,246.952,111.9"/>
				</g>
			</g>
			<g style="enable-background:new    ;">
				<defs>
					<path id="SVGID_19_" style="enable-background:new    ;" d="M246.845,111.908l-1.367,0.184c-0.071,0-0.144-0.009-0.216-0.026
						l1.367-0.184C246.701,111.899,246.773,111.908,246.845,111.908z"/>
				</defs>
				<clipPath id="SVGID_20_">
					<use xlink:href="#SVGID_19_"  style="overflow:visible;"/>
				</clipPath>
				<g style="clip-path:url(#SVGID_20_);enable-background:new    ;">
					<path style="fill:#F09B3E;" d="M246.845,111.908l-1.367,0.184c-0.071,0-0.144-0.009-0.216-0.026l1.367-0.184
						C246.701,111.899,246.773,111.908,246.845,111.908"/>
				</g>
			</g>
			<g style="enable-background:new    ;">
				<defs>
					<path id="SVGID_21_" style="enable-background:new    ;" d="M246.629,111.881l-1.367,0.184
						c-0.215-0.062-0.378-0.188-0.495-0.385l1.367-0.184C246.251,111.694,246.414,111.819,246.629,111.881z"/>
				</defs>
				<clipPath id="SVGID_22_">
					<use xlink:href="#SVGID_21_"  style="overflow:visible;"/>
				</clipPath>
				<g style="clip-path:url(#SVGID_22_);enable-background:new    ;">
					<path style="fill:#F09B3E;" d="M246.629,111.881l-1.367,0.184c-0.215-0.062-0.378-0.188-0.495-0.385l1.367-0.184
						C246.251,111.694,246.414,111.819,246.629,111.881"/>
				</g>
			</g>
			<g style="enable-background:new    ;">
				<defs>
					<path id="SVGID_23_" style="enable-background:new    ;" d="M244.606,105.491l-1.367,0.184c0.062-0.352,0.23-0.712,0.508-1.064
						c0.267-0.353,0.553-0.605,0.848-0.777l1.367-0.184c-0.295,0.172-0.581,0.425-0.849,0.777
						C244.837,104.779,244.668,105.14,244.606,105.491z"/>
				</defs>
				<clipPath id="SVGID_24_">
					<use xlink:href="#SVGID_23_"  style="overflow:visible;"/>
				</clipPath>
				<g style="clip-path:url(#SVGID_24_);enable-background:new    ;">
					<path style="fill:#F09B3E;" d="M244.606,105.491l-1.367,0.184c0.062-0.352,0.23-0.712,0.508-1.064
						c0.267-0.353,0.553-0.605,0.848-0.777l1.367-0.184c-0.295,0.172-0.581,0.425-0.849,0.777
						C244.837,104.779,244.668,105.14,244.606,105.491"/>
				</g>
			</g>
			<g style="enable-background:new    ;">
				<defs>
					<path id="SVGID_25_" style="enable-background:new    ;" d="M242.372,105.2c0.228-0.031,0.456-0.061,0.684-0.092
						c0.205-0.028,0.41-0.055,0.615-0.083c0.021-0.002,0.048-0.006,0.068-0.009c-0.106,0.014-0.21,0.051-0.31,0.111l-1.367,0.184
						C242.162,105.25,242.266,105.214,242.372,105.2z"/>
				</defs>
				<clipPath id="SVGID_26_">
					<use xlink:href="#SVGID_25_"  style="overflow:visible;"/>
				</clipPath>
				<g style="clip-path:url(#SVGID_26_);enable-background:new    ;">
					<path style="fill:#F09B3E;" d="M243.43,105.127l-1.367,0.184c0.053-0.032,0.106-0.057,0.161-0.075l1.367-0.184
						C243.536,105.07,243.482,105.095,243.43,105.127"/>
					<path style="fill:#F09A3D;" d="M243.591,105.051l-1.367,0.184c0.049-0.017,0.099-0.029,0.148-0.036l1.367-0.184
						C243.689,105.022,243.64,105.034,243.591,105.051"/>
				</g>
			</g>
			<g>
				<polygon style="fill:#F19B3F;" points="246.134,111.497 244.767,111.681 241.744,106.419 243.111,106.235 				"/>
			</g>
			<g>
				<path style="fill:#EE9530;" d="M246.557,103.465c0.059,0,0.113,0.006,0.167,0.02c0.217,0.062,0.379,0.179,0.487,0.376
					c0.108,0.188,0.136,0.395,0.084,0.621c-0.053,0.216-0.187,0.388-0.375,0.497c-0.832,0.48-1.098,1.525-0.802,3.153l1.457,2.532
					c0.108,0.197,0.136,0.404,0.074,0.629c-0.062,0.216-0.195,0.388-0.393,0.505c-0.131,0.073-0.271,0.109-0.412,0.11
					c-0.071,0-0.144-0.008-0.216-0.026c-0.215-0.062-0.378-0.188-0.495-0.385l-3.022-5.261c-0.108-0.198-0.137-0.405-0.075-0.621
					c0.063-0.208,0.188-0.37,0.394-0.488c0.132-0.079,0.269-0.118,0.412-0.118c0.07,0,0.143,0.008,0.215,0.025
					c0.216,0.044,0.387,0.169,0.496,0.367l0.054,0.09c0.062-0.352,0.23-0.712,0.507-1.064c0.268-0.352,0.554-0.605,0.849-0.777
					C246.184,103.527,246.38,103.466,246.557,103.465z"/>
			</g>
			<g style="enable-background:new    ;">
				<defs>
					<path id="SVGID_27_" style="enable-background:new    ;" d="M243.111,106.235l-1.367,0.184
						c-0.108-0.198-0.137-0.405-0.075-0.621c0.063-0.208,0.188-0.37,0.394-0.488l1.367-0.184c-0.206,0.118-0.331,0.28-0.394,0.488
						C242.975,105.831,243.003,106.038,243.111,106.235z"/>
				</defs>
				<clipPath id="SVGID_28_">
					<use xlink:href="#SVGID_27_"  style="overflow:visible;"/>
				</clipPath>
				<g style="clip-path:url(#SVGID_28_);enable-background:new    ;">
					<path style="fill:#F09B3E;" d="M243.111,106.235l-1.367,0.184c-0.108-0.198-0.137-0.405-0.075-0.621
						c0.063-0.208,0.188-0.37,0.394-0.488l1.367-0.184c-0.206,0.118-0.331,0.28-0.394,0.488
						C242.975,105.831,243.003,106.038,243.111,106.235"/>
				</g>
			</g>
			<g style="enable-background:new    ;">
				<defs>
					<path id="SVGID_29_" style="enable-background:new    ;" d="M240.989,112.307c0.456-0.061,0.911-0.123,1.367-0.184
						c-0.1,0.013-0.209,0.055-0.33,0.128l-1.367,0.184C240.78,112.362,240.89,112.32,240.989,112.307z"/>
				</defs>
				<clipPath id="SVGID_30_">
					<use xlink:href="#SVGID_29_"  style="overflow:visible;"/>
				</clipPath>
				<g style="clip-path:url(#SVGID_30_);enable-background:new    ;">
					<path style="fill:#F09B3E;" d="M242.026,112.251l-1.367,0.184c0.071-0.043,0.139-0.075,0.202-0.097l1.367-0.184
						C242.165,112.176,242.098,112.208,242.026,112.251"/>
					<path style="fill:#F09A3D;" d="M242.229,112.154l-1.367,0.184c0.045-0.016,0.087-0.025,0.128-0.031l1.367-0.184
						C242.315,112.128,242.273,112.139,242.229,112.154"/>
				</g>
			</g>
			<g style="enable-background:new    ;">
				<defs>
					<path id="SVGID_31_" style="enable-background:new    ;" d="M241.616,112.766l-1.367,0.184c0.054-0.216,0.187-0.388,0.41-0.515
						l1.367-0.184C241.803,112.378,241.67,112.549,241.616,112.766z"/>
				</defs>
				<clipPath id="SVGID_32_">
					<use xlink:href="#SVGID_31_"  style="overflow:visible;"/>
				</clipPath>
				<g style="clip-path:url(#SVGID_32_);enable-background:new    ;">
					<path style="fill:#F09B3E;" d="M241.616,112.766l-1.367,0.184c0.054-0.216,0.187-0.388,0.41-0.515l1.367-0.184
						C241.803,112.378,241.67,112.549,241.616,112.766"/>
				</g>
			</g>
			<g style="enable-background:new    ;">
				<defs>
					<path id="SVGID_33_" style="enable-background:new    ;" d="M239.666,114.118c-0.456,0.062-0.912,0.123-1.367,0.184
						c0.229-0.031,0.469-0.1,0.718-0.204c0.591-0.246,0.993-0.625,1.232-1.148l1.367-0.184c-0.239,0.523-0.642,0.902-1.232,1.148
						C240.135,114.019,239.896,114.087,239.666,114.118z"/>
				</defs>
				<clipPath id="SVGID_34_">
					<use xlink:href="#SVGID_33_"  style="overflow:visible;"/>
				</clipPath>
				<g style="clip-path:url(#SVGID_34_);enable-background:new    ;">
					<path style="fill:#F09A3D;" d="M239.666,114.118l-1.367,0.184c0.163-0.022,0.331-0.063,0.504-0.122l1.367-0.184
						C239.997,114.055,239.829,114.096,239.666,114.118"/>
					<path style="fill:#F09B3E;" d="M240.17,113.996l-1.367,0.184c0.07-0.024,0.142-0.052,0.214-0.082
						c0.591-0.246,0.993-0.625,1.232-1.148l1.367-0.184c-0.239,0.523-0.642,0.902-1.232,1.148
						C240.312,113.944,240.24,113.971,240.17,113.996"/>
				</g>
			</g>
			<g style="enable-background:new    ;">
				<defs>
					<path id="SVGID_35_" style="enable-background:new    ;" d="M237.623,109.778l1.367-0.184c0.108-0.015,0.217-0.022,0.323-0.022
						c0.14,0,0.276,0.01,0.412,0.034c0.521,0.097,0.908,0.275,1.169,0.544l-1.367,0.184c-0.261-0.269-0.647-0.447-1.169-0.544
						c-0.136-0.023-0.272-0.035-0.412-0.034C237.84,109.756,237.731,109.764,237.623,109.778z"/>
				</defs>
				<clipPath id="SVGID_36_">
					<use xlink:href="#SVGID_35_"  style="overflow:visible;"/>
				</clipPath>
				<g style="clip-path:url(#SVGID_36_);enable-background:new    ;">
					<path style="fill:#F09B3E;" d="M240.895,110.15l-1.367,0.184c-0.261-0.269-0.647-0.447-1.169-0.544
						c-0.136-0.023-0.272-0.035-0.412-0.034c-0.106,0-0.215,0.008-0.323,0.022l1.367-0.184c0.108-0.015,0.217-0.022,0.323-0.022
						c0.14,0,0.276,0.01,0.412,0.034C240.247,109.702,240.634,109.881,240.895,110.15"/>
				</g>
			</g>
			<g>
				<polygon style="fill:#F09B3F;" points="237.117,112.315 235.75,112.5 239.527,110.333 240.895,110.15 				"/>
			</g>
			<g style="enable-background:new    ;">
				<defs>
					<path id="SVGID_37_" style="enable-background:new    ;" d="M239.853,115.738c-0.455,0.062-0.911,0.123-1.366,0.184
						c-0.146,0.02-0.295,0.03-0.442,0.031c-0.35,0.001-0.705-0.051-1.066-0.156c-0.998-0.284-1.763-0.893-2.297-1.799
						c-0.524-0.925-0.655-1.896-0.408-2.914c0.255-1.009,0.826-1.776,1.712-2.284c0.465-0.271,0.937-0.438,1.416-0.502l1.367-0.184
						c-0.479,0.064-0.951,0.231-1.416,0.502c-0.886,0.507-1.457,1.275-1.712,2.284c-0.247,1.018-0.116,1.989,0.408,2.914
						c0.534,0.907,1.299,1.516,2.297,1.8c0.361,0.105,0.717,0.157,1.065,0.155C239.559,115.769,239.706,115.758,239.853,115.738z"/>
				</defs>
				<clipPath id="SVGID_38_">
					<use xlink:href="#SVGID_37_"  style="overflow:visible;"/>
				</clipPath>
				<g style="clip-path:url(#SVGID_38_);enable-background:new    ;">
					<path style="fill:#F09B3E;" d="M239.853,115.738l-1.366,0.184c-0.146,0.02-0.295,0.03-0.442,0.031
						c-0.35,0.001-0.705-0.051-1.066-0.156c-0.998-0.284-1.763-0.893-2.297-1.799c-0.524-0.925-0.655-1.896-0.408-2.914
						c0.255-1.009,0.826-1.776,1.712-2.284c0.243-0.142,0.488-0.255,0.736-0.34l1.367-0.184c-0.248,0.085-0.493,0.198-0.736,0.34
						c-0.886,0.507-1.457,1.275-1.712,2.284c-0.247,1.018-0.116,1.989,0.408,2.914c0.534,0.907,1.299,1.516,2.297,1.8
						c0.361,0.105,0.717,0.157,1.065,0.155C239.559,115.769,239.706,115.758,239.853,115.738"/>
					<path style="fill:#F09A3D;" d="M238.088,108.276l-1.367,0.184c0.225-0.078,0.451-0.131,0.68-0.162l1.367-0.184
						C238.539,108.145,238.313,108.199,238.088,108.276"/>
				</g>
			</g>
			<g>
				<path style="fill:#EE9530;" d="M242.592,112.149c0.404,0.134,0.576,0.421,0.498,0.871c-0.301,0.955-0.916,1.705-1.848,2.23
					c-0.597,0.343-1.205,0.516-1.832,0.518c-0.349,0.001-0.704-0.05-1.065-0.155c-0.998-0.284-1.763-0.893-2.297-1.8
					c-0.524-0.925-0.655-1.896-0.408-2.914c0.255-1.009,0.826-1.776,1.712-2.284c0.606-0.354,1.227-0.53,1.859-0.532
					c0.292-0.001,0.588,0.034,0.885,0.107c0.943,0.23,1.7,0.785,2.27,1.655l0.046,0.063c0.107,0.197,0.136,0.396,0.074,0.584
					c-0.063,0.198-0.195,0.361-0.41,0.479l-4.233,2.446c0.297,0.332,0.621,0.538,0.953,0.617c0.192,0.068,0.393,0.101,0.602,0.1
					c0.311-0.001,0.639-0.077,0.987-0.223c0.591-0.246,0.993-0.625,1.232-1.148c0.054-0.216,0.187-0.388,0.41-0.515
					c0.148-0.09,0.281-0.132,0.397-0.133C242.484,112.118,242.54,112.129,242.592,112.149z M237.147,111.064
					c-0.15,0.469-0.157,0.892-0.03,1.251l3.777-2.166c-0.261-0.269-0.647-0.448-1.169-0.544c-0.136-0.023-0.272-0.034-0.412-0.034
					c-0.392,0.001-0.794,0.098-1.211,0.292C237.61,110.189,237.29,110.587,237.147,111.064"/>
			</g>
			<g style="enable-background:new    ;">
				<defs>
					<path id="SVGID_39_" style="enable-background:new    ;" d="M234.832,118.888l-1.366,0.184
						c-0.034,0.004-0.069,0.007-0.104,0.007l1.367-0.184C234.764,118.895,234.799,118.893,234.832,118.888z"/>
				</defs>
				<clipPath id="SVGID_40_">
					<use xlink:href="#SVGID_39_"  style="overflow:visible;"/>
				</clipPath>
				<g style="clip-path:url(#SVGID_40_);enable-background:new    ;">
					<path style="fill:#F09B3E;" d="M234.832,118.888l-1.366,0.184c-0.034,0.004-0.069,0.007-0.104,0.007l1.367-0.184
						C234.764,118.895,234.799,118.893,234.832,118.888"/>
				</g>
			</g>
			<g style="enable-background:new    ;">
				<defs>
					<path id="SVGID_41_" style="enable-background:new    ;" d="M234.729,118.895l-1.367,0.184c-0.071,0-0.144-0.009-0.218-0.027
						l1.366-0.184C234.585,118.886,234.657,118.895,234.729,118.895z"/>
				</defs>
				<clipPath id="SVGID_42_">
					<use xlink:href="#SVGID_41_"  style="overflow:visible;"/>
				</clipPath>
				<g style="clip-path:url(#SVGID_42_);enable-background:new    ;">
					<path style="fill:#F09B3E;" d="M234.729,118.895l-1.367,0.184c-0.071,0-0.144-0.009-0.218-0.027l1.366-0.184
						C234.585,118.886,234.657,118.895,234.729,118.895"/>
				</g>
			</g>
			<g style="enable-background:new    ;">
				<defs>
					<path id="SVGID_43_" style="enable-background:new    ;" d="M234.51,118.869l-1.366,0.184
						c-0.216-0.062-0.388-0.187-0.496-0.375l1.367-0.184C234.123,118.681,234.295,118.806,234.51,118.869z"/>
				</defs>
				<clipPath id="SVGID_44_">
					<use xlink:href="#SVGID_43_"  style="overflow:visible;"/>
				</clipPath>
				<g style="clip-path:url(#SVGID_44_);enable-background:new    ;">
					<path style="fill:#F09B3E;" d="M234.51,118.869l-1.366,0.184c-0.216-0.062-0.388-0.187-0.496-0.375l1.367-0.184
						C234.123,118.681,234.295,118.806,234.51,118.869"/>
				</g>
			</g>
			<g>
				<polygon style="fill:#F19B3F;" points="234.015,118.493 232.647,118.677 230.811,115.48 232.178,115.296 				"/>
			</g>
			<g style="enable-background:new    ;">
				<defs>
					<path id="SVGID_45_" style="enable-background:new    ;" d="M229.247,114.716l1.367-0.184c0.064-0.009,0.13-0.013,0.195-0.013
						c0.135,0,0.272,0.017,0.413,0.052c0.422,0.107,0.738,0.348,0.955,0.725l-1.367,0.184c-0.217-0.377-0.533-0.618-0.955-0.725
						c-0.141-0.035-0.278-0.053-0.413-0.052C229.377,114.703,229.312,114.708,229.247,114.716z"/>
				</defs>
				<clipPath id="SVGID_46_">
					<use xlink:href="#SVGID_45_"  style="overflow:visible;"/>
				</clipPath>
				<g style="clip-path:url(#SVGID_46_);enable-background:new    ;">
					<path style="fill:#F09B3E;" d="M232.178,115.296l-1.367,0.184c-0.217-0.377-0.533-0.618-0.955-0.725
						c-0.141-0.035-0.278-0.053-0.413-0.052c-0.065,0-0.131,0.004-0.195,0.013l1.367-0.184c0.064-0.009,0.13-0.013,0.195-0.013
						c0.135,0,0.272,0.017,0.413,0.052C231.645,114.678,231.961,114.919,232.178,115.296"/>
				</g>
			</g>
			<g style="enable-background:new    ;">
				<defs>
					<path id="SVGID_47_" style="enable-background:new    ;" d="M230.681,121.292c-0.034,0.004-0.069,0.007-0.104,0.007
						l-1.366,0.184c0.034,0,0.069-0.002,0.104-0.007C229.724,121.42,230.271,121.347,230.681,121.292z"/>
				</defs>
				<clipPath id="SVGID_48_">
					<use xlink:href="#SVGID_47_"  style="overflow:visible;"/>
				</clipPath>
				<g style="clip-path:url(#SVGID_48_);enable-background:new    ;">
					<path style="fill:#F09B3E;" d="M230.681,121.292l-1.367,0.184c-0.034,0.004-0.069,0.007-0.104,0.007l1.366-0.184
						C230.611,121.298,230.646,121.296,230.681,121.292"/>
				</g>
			</g>
			<g style="enable-background:new    ;">
				<defs>
					<path id="SVGID_49_" style="enable-background:new    ;" d="M230.576,121.299l-1.366,0.184c-0.075,0-0.151-0.009-0.229-0.028
						l1.367-0.184C230.426,121.289,230.502,121.299,230.576,121.299z"/>
				</defs>
				<clipPath id="SVGID_50_">
					<use xlink:href="#SVGID_49_"  style="overflow:visible;"/>
				</clipPath>
				<g style="clip-path:url(#SVGID_50_);enable-background:new    ;">
					<path style="fill:#F09B3E;" d="M230.576,121.299l-1.366,0.184c-0.075,0-0.151-0.009-0.229-0.028l1.367-0.184
						C230.426,121.289,230.502,121.299,230.576,121.299"/>
				</g>
			</g>
			<g style="enable-background:new    ;">
				<defs>
					<path id="SVGID_51_" style="enable-background:new    ;" d="M230.348,121.27l-1.367,0.184
						c-0.216-0.062-0.378-0.188-0.495-0.385l1.367-0.184C229.97,121.083,230.132,121.208,230.348,121.27z"/>
				</defs>
				<clipPath id="SVGID_52_">
					<use xlink:href="#SVGID_51_"  style="overflow:visible;"/>
				</clipPath>
				<g style="clip-path:url(#SVGID_52_);enable-background:new    ;">
					<path style="fill:#F09B3E;" d="M230.348,121.27l-1.367,0.184c-0.216-0.062-0.378-0.188-0.495-0.385l1.367-0.184
						C229.97,121.083,230.132,121.208,230.348,121.27"/>
				</g>
			</g>
			<g style="enable-background:new    ;">
				<defs>
					<path id="SVGID_53_" style="enable-background:new    ;" d="M229.001,113.086l1.367-0.184c-0.4,0.054-0.791,0.19-1.17,0.408
						c-0.511,0.299-0.895,0.706-1.171,1.229l-1.367,0.184c0.276-0.523,0.66-0.929,1.171-1.229
						C228.21,113.275,228.601,113.14,229.001,113.086z"/>
				</defs>
				<clipPath id="SVGID_54_">
					<use xlink:href="#SVGID_53_"  style="overflow:visible;"/>
				</clipPath>
				<g style="clip-path:url(#SVGID_54_);enable-background:new    ;">
					<path style="fill:#F09B3E;" d="M228.027,114.539l-1.367,0.184c0.276-0.523,0.66-0.929,1.171-1.229
						c0.193-0.112,0.391-0.202,0.59-0.271l1.367-0.184c-0.199,0.069-0.396,0.159-0.59,0.271
						C228.688,113.609,228.304,114.016,228.027,114.539"/>
					<path style="fill:#F09A3D;" d="M229.788,113.04l-1.367,0.184c0.19-0.065,0.384-0.111,0.58-0.138l1.367-0.184
						C230.172,112.928,229.979,112.974,229.788,113.04"/>
				</g>
			</g>
			<g style="enable-background:new    ;">
				<defs>
					<path id="SVGID_55_" style="enable-background:new    ;" d="M226.092,114.575l1.367-0.184
						c-0.109,0.015-0.218,0.054-0.328,0.116c-0.197,0.108-0.322,0.28-0.375,0.496l-1.367,0.184c0.053-0.216,0.178-0.388,0.375-0.496
						C225.874,114.628,225.983,114.589,226.092,114.575z"/>
				</defs>
				<clipPath id="SVGID_56_">
					<use xlink:href="#SVGID_55_"  style="overflow:visible;"/>
				</clipPath>
				<g style="clip-path:url(#SVGID_56_);enable-background:new    ;">
					<path style="fill:#F09B3E;" d="M226.756,115.003l-1.367,0.184c0.053-0.216,0.178-0.388,0.375-0.496
						c0.058-0.033,0.115-0.059,0.172-0.079l1.367-0.184c-0.057,0.02-0.114,0.046-0.172,0.079
						C226.934,114.615,226.809,114.787,226.756,115.003"/>
					<path style="fill:#F09A3D;" d="M227.303,114.428l-1.367,0.184c0.053-0.018,0.104-0.03,0.156-0.037l1.367-0.184
						C227.407,114.397,227.355,114.41,227.303,114.428"/>
				</g>
			</g>
			<g>
				<polygon style="fill:#F19B3F;" points="229.853,120.885 228.485,121.069 225.463,115.808 226.83,115.624 				"/>
			</g>
			<g>
				<path style="fill:#EE9530;" d="M230.756,112.875c0.288-0.001,0.583,0.039,0.881,0.12c0.863,0.239,1.503,0.732,1.938,1.495
					l1.837,3.187c0.117,0.198,0.146,0.405,0.084,0.621c-0.054,0.216-0.17,0.378-0.366,0.487c-0.125,0.072-0.259,0.109-0.4,0.11
					c-0.071,0-0.144-0.009-0.219-0.026c-0.215-0.063-0.387-0.188-0.495-0.376l-1.837-3.197c-0.217-0.377-0.533-0.618-0.955-0.725
					c-0.141-0.035-0.278-0.052-0.413-0.052c-0.271,0.001-0.532,0.074-0.789,0.219c-0.376,0.218-0.616,0.534-0.722,0.948
					c-0.106,0.405-0.051,0.801,0.167,1.178l1.827,3.188c0.118,0.198,0.137,0.414,0.066,0.639c-0.07,0.226-0.204,0.388-0.393,0.505
					c-0.126,0.07-0.257,0.103-0.391,0.104c-0.074,0-0.15-0.01-0.229-0.029c-0.216-0.062-0.378-0.187-0.495-0.385l-3.022-5.261
					c-0.108-0.197-0.137-0.404-0.074-0.621c0.053-0.216,0.178-0.388,0.375-0.496c0.143-0.081,0.283-0.122,0.424-0.123
					c0.158,0,0.315,0.051,0.473,0.155c0.276-0.523,0.66-0.93,1.171-1.229C229.698,113.021,230.219,112.877,230.756,112.875z"/>
			</g>
			<g style="enable-background:new    ;">
				<defs>
					<path id="SVGID_57_" style="enable-background:new    ;" d="M226.83,115.624l-1.367,0.184
						c-0.108-0.197-0.137-0.404-0.074-0.621l1.367-0.184C226.693,115.219,226.722,115.426,226.83,115.624z"/>
				</defs>
				<clipPath id="SVGID_58_">
					<use xlink:href="#SVGID_57_"  style="overflow:visible;"/>
				</clipPath>
				<g style="clip-path:url(#SVGID_58_);enable-background:new    ;">
					<path style="fill:#F09B3E;" d="M226.83,115.624l-1.367,0.184c-0.108-0.197-0.137-0.404-0.074-0.621l1.367-0.184
						C226.693,115.219,226.722,115.426,226.83,115.624"/>
				</g>
			</g>
			<g style="enable-background:new    ;">
				<defs>
					<path id="SVGID_59_" style="enable-background:new    ;" d="M224.943,122.155l1.367-0.184c-0.106,0.014-0.21,0.051-0.312,0.109
						l-1.367,0.184C224.733,122.205,224.837,122.169,224.943,122.155z"/>
				</defs>
				<clipPath id="SVGID_60_">
					<use xlink:href="#SVGID_59_"  style="overflow:visible;"/>
				</clipPath>
				<g style="clip-path:url(#SVGID_60_);enable-background:new    ;">
					<path style="fill:#F09B3E;" d="M225.999,122.08l-1.367,0.184c0.052-0.03,0.104-0.054,0.158-0.072l1.367-0.184
						C226.104,122.025,226.051,122.05,225.999,122.08"/>
					<path style="fill:#F09A3D;" d="M226.157,122.007l-1.367,0.184c0.051-0.018,0.102-0.03,0.153-0.037l1.367-0.184
						C226.259,121.978,226.208,121.99,226.157,122.007"/>
				</g>
			</g>
			<g style="enable-background:new    ;">
				<defs>
					<path id="SVGID_61_" style="enable-background:new    ;" d="M226.23,123.778l-1.367,0.184
						c-0.068,0.009-0.137,0.014-0.205,0.014c-0.154,0.001-0.311-0.021-0.467-0.064c-0.459-0.124-0.801-0.384-1.036-0.797
						l1.367-0.184c0.235,0.413,0.577,0.673,1.036,0.797c0.156,0.043,0.313,0.065,0.467,0.064
						C226.094,123.792,226.162,123.787,226.23,123.778z"/>
				</defs>
				<clipPath id="SVGID_62_">
					<use xlink:href="#SVGID_61_"  style="overflow:visible;"/>
				</clipPath>
				<g style="clip-path:url(#SVGID_62_);enable-background:new    ;">
					<path style="fill:#F09B3E;" d="M226.23,123.778l-1.367,0.184c-0.068,0.009-0.137,0.014-0.205,0.014
						c-0.154,0.001-0.311-0.021-0.467-0.064c-0.459-0.124-0.801-0.384-1.036-0.797l1.367-0.184c0.235,0.413,0.577,0.673,1.036,0.797
						c0.156,0.043,0.313,0.065,0.467,0.064C226.094,123.792,226.162,123.787,226.23,123.778"/>
				</g>
			</g>
			<g style="enable-background:new    ;">
				<defs>
					<path id="SVGID_63_" style="enable-background:new    ;" d="M222.307,116.759l1.367-0.184
						c-0.112,0.015-0.219,0.055-0.321,0.116l-1.367,0.184C222.088,116.813,222.194,116.774,222.307,116.759z"/>
				</defs>
				<clipPath id="SVGID_64_">
					<use xlink:href="#SVGID_63_"  style="overflow:visible;"/>
				</clipPath>
				<g style="clip-path:url(#SVGID_64_);enable-background:new    ;">
					<path style="fill:#F09B3E;" d="M223.353,116.691l-1.367,0.184c0.056-0.033,0.111-0.06,0.169-0.08l1.367-0.184
						C223.464,116.631,223.407,116.658,223.353,116.691"/>
					<path style="fill:#F09A3D;" d="M223.521,116.611l-1.367,0.184c0.05-0.017,0.101-0.029,0.152-0.036l1.367-0.184
						C223.622,116.583,223.571,116.594,223.521,116.611"/>
				</g>
			</g>
			<g>
				<polygon style="fill:#F09B3F;" points="223.013,116.881 221.646,117.065 221.985,116.875 223.353,116.691 				"/>
			</g>
			<g>
				<polygon style="fill:#F19B3F;" points="224.522,122.931 223.155,123.115 221.011,119.389 222.378,119.205 				"/>
			</g>
			<g style="enable-background:new    ;">
				<defs>
					<path id="SVGID_65_" style="enable-background:new    ;" d="M221.676,119.534l-1.367,0.184
						c-0.035,0.005-0.069,0.007-0.104,0.007l1.367-0.184C221.606,119.541,221.641,119.539,221.676,119.534z"/>
				</defs>
				<clipPath id="SVGID_66_">
					<use xlink:href="#SVGID_65_"  style="overflow:visible;"/>
				</clipPath>
				<g style="clip-path:url(#SVGID_66_);enable-background:new    ;">
					<path style="fill:#F09B3E;" d="M221.676,119.534l-1.367,0.184c-0.035,0.005-0.069,0.007-0.104,0.007l1.367-0.184
						C221.606,119.541,221.641,119.539,221.676,119.534"/>
				</g>
			</g>
			<g>
				<polygon style="fill:#F09B3F;" points="221.15,117.959 219.783,118.143 220.169,117.917 221.536,117.732 				"/>
			</g>
			<g style="enable-background:new    ;">
				<defs>
					<path id="SVGID_67_" style="enable-background:new    ;" d="M221.571,119.541l-1.367,0.184c-0.07,0-0.142-0.008-0.216-0.026
						l1.367-0.184C221.43,119.533,221.501,119.541,221.571,119.541z"/>
				</defs>
				<clipPath id="SVGID_68_">
					<use xlink:href="#SVGID_67_"  style="overflow:visible;"/>
				</clipPath>
				<g style="clip-path:url(#SVGID_68_);enable-background:new    ;">
					<path style="fill:#F09B3E;" d="M221.571,119.541l-1.367,0.184c-0.07,0-0.142-0.008-0.216-0.026l1.367-0.184
						C221.43,119.533,221.501,119.541,221.571,119.541"/>
				</g>
			</g>
			<g style="enable-background:new    ;">
				<defs>
					<path id="SVGID_69_" style="enable-background:new    ;" d="M219.694,114.707l1.367-0.184c-0.106,0.015-0.21,0.051-0.313,0.108
						c-0.206,0.118-0.339,0.29-0.401,0.515l-1.367,0.184c0.063-0.225,0.196-0.396,0.401-0.515
						C219.484,114.757,219.588,114.721,219.694,114.707z"/>
				</defs>
				<clipPath id="SVGID_70_">
					<use xlink:href="#SVGID_69_"  style="overflow:visible;"/>
				</clipPath>
				<g style="clip-path:url(#SVGID_70_);enable-background:new    ;">
					<path style="fill:#F09B3E;" d="M220.348,115.146l-1.367,0.184c0.063-0.225,0.196-0.396,0.401-0.515
						c0.052-0.029,0.104-0.053,0.157-0.071l1.367-0.184c-0.053,0.018-0.105,0.042-0.157,0.071
						C220.543,114.749,220.41,114.92,220.348,115.146"/>
					<path style="fill:#F09A3D;" d="M220.906,114.56l-1.367,0.184c0.052-0.018,0.104-0.03,0.155-0.037l1.367-0.184
						C221.01,114.53,220.958,114.542,220.906,114.56"/>
				</g>
			</g>
			<g>
				<polygon style="fill:#F19B3F;" points="221.536,117.732 220.169,117.917 219.056,115.978 220.423,115.793 				"/>
			</g>
			<g style="enable-background:new    ;">
				<defs>
					<path id="SVGID_71_" style="enable-background:new    ;" d="M220.75,118.465l-1.367,0.184c0.062-0.225,0.195-0.387,0.4-0.505
						l1.367-0.184C220.944,118.077,220.812,118.24,220.75,118.465z"/>
				</defs>
				<clipPath id="SVGID_72_">
					<use xlink:href="#SVGID_71_"  style="overflow:visible;"/>
				</clipPath>
				<g style="clip-path:url(#SVGID_72_);enable-background:new    ;">
					<path style="fill:#F09B3E;" d="M220.75,118.465l-1.367,0.184c0.062-0.225,0.195-0.387,0.4-0.505l1.367-0.184
						C220.944,118.077,220.812,118.24,220.75,118.465"/>
				</g>
			</g>
			<g style="enable-background:new    ;">
				<defs>
					<path id="SVGID_73_" style="enable-background:new    ;" d="M220.423,115.793l-1.367,0.184
						c-0.118-0.207-0.146-0.422-0.075-0.648l1.367-0.184C220.277,115.371,220.305,115.587,220.423,115.793z"/>
				</defs>
				<clipPath id="SVGID_74_">
					<use xlink:href="#SVGID_73_"  style="overflow:visible;"/>
				</clipPath>
				<g style="clip-path:url(#SVGID_74_);enable-background:new    ;">
					<path style="fill:#F09B3E;" d="M220.423,115.793l-1.367,0.184c-0.118-0.207-0.146-0.422-0.075-0.648l1.367-0.184
						C220.277,115.371,220.305,115.587,220.423,115.793"/>
				</g>
			</g>
			<g>
				<path style="fill:#EE9530;" d="M221.163,114.516c0.075,0,0.153,0.01,0.232,0.032c0.216,0.053,0.387,0.188,0.505,0.394
					l1.112,1.939l0.34-0.19c0.133-0.08,0.272-0.122,0.422-0.123c0.073,0,0.147,0.009,0.225,0.029
					c0.224,0.063,0.396,0.188,0.513,0.385c0.118,0.207,0.146,0.422,0.084,0.647c-0.062,0.234-0.195,0.406-0.4,0.524l-0.332,0.199
					l2.136,3.726c0.134-0.077,0.271-0.115,0.414-0.116c0.075,0,0.152,0.01,0.231,0.032c0.225,0.071,0.405,0.205,0.514,0.412
					c0.126,0.197,0.154,0.414,0.093,0.638c-0.062,0.226-0.195,0.397-0.401,0.515c-0.262,0.153-0.539,0.23-0.824,0.231
					c-0.154,0.001-0.311-0.021-0.467-0.064c-0.459-0.124-0.801-0.384-1.036-0.797l-2.145-3.726l-0.386,0.218
					c-0.138,0.079-0.277,0.118-0.421,0.118c-0.07,0-0.142-0.008-0.216-0.025c-0.224-0.063-0.396-0.197-0.513-0.403
					c-0.118-0.207-0.146-0.422-0.093-0.647c0.062-0.225,0.194-0.388,0.4-0.506l0.386-0.227l-1.113-1.939
					c-0.118-0.207-0.146-0.422-0.075-0.648c0.063-0.225,0.195-0.396,0.401-0.515C220.884,114.555,221.021,114.516,221.163,114.516z"
					/>
			</g>
			<g style="enable-background:new    ;">
				<defs>
					<path id="SVGID_75_" style="enable-background:new    ;" d="M221.355,119.516l-1.367,0.184
						c-0.224-0.062-0.396-0.196-0.513-0.403c-0.118-0.207-0.146-0.422-0.093-0.648l1.367-0.184
						c-0.054,0.225-0.025,0.441,0.093,0.647C220.96,119.319,221.132,119.453,221.355,119.516z"/>
				</defs>
				<clipPath id="SVGID_76_">
					<use xlink:href="#SVGID_75_"  style="overflow:visible;"/>
				</clipPath>
				<g style="clip-path:url(#SVGID_76_);enable-background:new    ;">
					<path style="fill:#F09B3E;" d="M221.355,119.516l-1.367,0.184c-0.224-0.062-0.396-0.196-0.513-0.403
						c-0.118-0.207-0.146-0.422-0.093-0.648l1.367-0.184c-0.054,0.225-0.025,0.441,0.093,0.647
						C220.96,119.319,221.132,119.453,221.355,119.516"/>
				</g>
			</g>
		</g>
		<g style="enable-background:new    ;">
			<g style="enable-background:new    ;">
				<defs>
					<path id="SVGID_77_" style="enable-background:new    ;" d="M219.493,127.739l-1.367,0.184
						c-0.031,0.004-0.063,0.006-0.095,0.006l1.367-0.184C219.43,127.746,219.462,127.743,219.493,127.739z"/>
				</defs>
				<clipPath id="SVGID_78_">
					<use xlink:href="#SVGID_77_"  style="overflow:visible;"/>
				</clipPath>
				<g style="clip-path:url(#SVGID_78_);enable-background:new    ;">
					<path style="fill:#F09B3E;" d="M219.493,127.739l-1.367,0.184c-0.031,0.004-0.063,0.006-0.095,0.006l1.367-0.184
						C219.43,127.746,219.462,127.743,219.493,127.739"/>
				</g>
			</g>
			<g style="enable-background:new    ;">
				<defs>
					<path id="SVGID_79_" style="enable-background:new    ;" d="M219.398,127.746l-1.367,0.184c-0.074,0-0.151-0.011-0.229-0.032
						c-0.217-0.062-0.379-0.188-0.486-0.385l1.367-0.184c0.107,0.198,0.27,0.323,0.486,0.385
						C219.247,127.735,219.324,127.746,219.398,127.746z"/>
				</defs>
				<clipPath id="SVGID_80_">
					<use xlink:href="#SVGID_79_"  style="overflow:visible;"/>
				</clipPath>
				<g style="clip-path:url(#SVGID_80_);enable-background:new    ;">
					<path style="fill:#F09B3E;" d="M219.398,127.746l-1.367,0.184c-0.074,0-0.151-0.011-0.229-0.032
						c-0.217-0.062-0.379-0.188-0.486-0.385l1.367-0.184c0.107,0.198,0.27,0.323,0.486,0.385
						C219.247,127.735,219.324,127.746,219.398,127.746"/>
				</g>
			</g>
			<g style="enable-background:new    ;">
				<defs>
					<path id="SVGID_81_" style="enable-background:new    ;" d="M217.625,119.498l1.367-0.184c-0.15,0.02-0.314,0.079-0.491,0.177
						c-0.295,0.163-0.581,0.425-0.849,0.777s-0.437,0.704-0.506,1.064l-1.367,0.184c0.069-0.36,0.238-0.712,0.506-1.064
						c0.268-0.353,0.554-0.614,0.849-0.777C217.311,119.577,217.476,119.518,217.625,119.498z"/>
				</defs>
				<clipPath id="SVGID_82_">
					<use xlink:href="#SVGID_81_"  style="overflow:visible;"/>
				</clipPath>
				<g style="clip-path:url(#SVGID_82_);enable-background:new    ;">
					<path style="fill:#F09B3E;" d="M217.146,121.332l-1.367,0.184c0.069-0.36,0.238-0.712,0.506-1.064
						c0.268-0.353,0.554-0.614,0.849-0.777c0.095-0.053,0.187-0.094,0.274-0.124l1.367-0.184c-0.088,0.03-0.18,0.072-0.274,0.124
						c-0.295,0.163-0.581,0.425-0.849,0.777S217.216,120.972,217.146,121.332"/>
					<path style="fill:#F09A3D;" d="M218.775,119.367l-1.367,0.184c0.075-0.026,0.147-0.043,0.217-0.053l1.367-0.184
						C218.923,119.323,218.851,119.341,218.775,119.367"/>
				</g>
			</g>
			<g>
				<polygon style="fill:#F19B3F;" points="218.683,127.328 217.315,127.512 214.293,122.251 215.66,122.067 				"/>
			</g>
			<g>
				<path style="fill:#EE9530;" d="M219.104,119.306c0.059,0,0.115,0.006,0.169,0.02c0.207,0.053,0.369,0.179,0.478,0.367
					c0.117,0.188,0.146,0.395,0.083,0.621c-0.052,0.225-0.177,0.387-0.374,0.505c-0.824,0.472-1.097,1.525-0.802,3.144l1.456,2.541
					c0.118,0.198,0.138,0.404,0.075,0.621c-0.062,0.225-0.195,0.387-0.392,0.505c-0.128,0.077-0.261,0.115-0.398,0.116
					c-0.074,0-0.151-0.01-0.229-0.032c-0.217-0.062-0.379-0.188-0.486-0.385l-3.022-5.261c-0.118-0.197-0.146-0.404-0.084-0.611
					c0.062-0.217,0.196-0.379,0.393-0.497c0.133-0.079,0.272-0.118,0.417-0.119c0.07,0,0.14,0.009,0.21,0.026
					c0.217,0.053,0.388,0.178,0.496,0.367l0.055,0.099c0.069-0.36,0.238-0.712,0.506-1.064s0.554-0.614,0.849-0.777
					C218.723,119.368,218.925,119.307,219.104,119.306z"/>
			</g>
			<g style="enable-background:new    ;">
				<defs>
					<path id="SVGID_83_" style="enable-background:new    ;" d="M214.915,121.031l1.367-0.184
						c-0.108,0.014-0.213,0.051-0.313,0.111c-0.196,0.118-0.331,0.28-0.393,0.497c-0.063,0.207-0.034,0.414,0.084,0.611
						l-1.367,0.184c-0.118-0.197-0.146-0.404-0.084-0.611c0.062-0.217,0.196-0.379,0.393-0.497
						C214.702,121.083,214.807,121.046,214.915,121.031z"/>
				</defs>
				<clipPath id="SVGID_84_">
					<use xlink:href="#SVGID_83_"  style="overflow:visible;"/>
				</clipPath>
				<g style="clip-path:url(#SVGID_84_);enable-background:new    ;">
					<path style="fill:#F09B3E;" d="M215.66,122.067l-1.367,0.184c-0.118-0.197-0.146-0.404-0.084-0.611
						c0.062-0.217,0.196-0.379,0.393-0.497c0.053-0.031,0.106-0.056,0.161-0.075l1.367-0.184c-0.055,0.019-0.108,0.043-0.161,0.075
						c-0.196,0.118-0.331,0.28-0.393,0.497C215.514,121.663,215.542,121.87,215.66,122.067"/>
					<path style="fill:#F09A3D;" d="M216.13,120.884l-1.367,0.184c0.05-0.018,0.101-0.029,0.152-0.037l1.367-0.184
						C216.23,120.854,216.18,120.866,216.13,120.884"/>
				</g>
			</g>
			<g style="enable-background:new    ;">
				<defs>
					<path id="SVGID_85_" style="enable-background:new    ;" d="M215.467,130.058l-1.367,0.184
						c-0.03,0.004-0.061,0.006-0.092,0.006l1.367-0.184C215.406,130.064,215.437,130.062,215.467,130.058z"/>
				</defs>
				<clipPath id="SVGID_86_">
					<use xlink:href="#SVGID_85_"  style="overflow:visible;"/>
				</clipPath>
				<g style="clip-path:url(#SVGID_86_);enable-background:new    ;">
					<path style="fill:#F09B3E;" d="M215.467,130.058l-1.367,0.184c-0.03,0.004-0.061,0.006-0.092,0.006l1.367-0.184
						C215.406,130.064,215.437,130.062,215.467,130.058"/>
				</g>
			</g>
			<g style="enable-background:new    ;">
				<defs>
					<path id="SVGID_87_" style="enable-background:new    ;" d="M215.375,130.064l-1.367,0.184c-0.046,0-0.09-0.004-0.135-0.013
						c-0.189-0.035-0.352-0.133-0.495-0.268l1.367-0.184c0.144,0.135,0.306,0.233,0.495,0.268
						C215.284,130.06,215.329,130.064,215.375,130.064z"/>
				</defs>
				<clipPath id="SVGID_88_">
					<use xlink:href="#SVGID_87_"  style="overflow:visible;"/>
				</clipPath>
				<g style="clip-path:url(#SVGID_88_);enable-background:new    ;">
					<path style="fill:#F09B3E;" d="M215.375,130.064l-1.367,0.184c-0.046,0-0.09-0.004-0.135-0.013
						c-0.189-0.035-0.352-0.133-0.495-0.268l1.367-0.184c0.144,0.135,0.306,0.233,0.495,0.268
						C215.284,130.06,215.329,130.064,215.375,130.064"/>
				</g>
			</g>
			<g style="enable-background:new    ;">
				<defs>
					<path id="SVGID_89_" style="enable-background:new    ;" d="M210.853,123.351l1.367-0.184
						c-0.093,0.013-0.183,0.043-0.271,0.094l-1.367,0.184C210.67,123.394,210.76,123.363,210.853,123.351z"/>
				</defs>
				<clipPath id="SVGID_90_">
					<use xlink:href="#SVGID_89_"  style="overflow:visible;"/>
				</clipPath>
				<g style="clip-path:url(#SVGID_90_);enable-background:new    ;">
					<path style="fill:#F09B3E;" d="M211.949,123.261l-1.367,0.184c0.045-0.026,0.09-0.046,0.136-0.062l1.367-0.184
						C212.039,123.214,211.994,123.235,211.949,123.261"/>
					<path style="fill:#F09A3D;" d="M212.085,123.199l-1.367,0.184c0.045-0.016,0.089-0.026,0.135-0.032l1.367-0.184
						C212.174,123.173,212.129,123.184,212.085,123.199"/>
				</g>
			</g>
			<g style="enable-background:new    ;">
				<defs>
					<path id="SVGID_91_" style="enable-background:new    ;" d="M211.583,123.694l-1.367,0.184
						c0.063-0.181,0.188-0.325,0.366-0.434l1.367-0.184C211.771,123.37,211.646,123.514,211.583,123.694z"/>
				</defs>
				<clipPath id="SVGID_92_">
					<use xlink:href="#SVGID_91_"  style="overflow:visible;"/>
				</clipPath>
				<g style="clip-path:url(#SVGID_92_);enable-background:new    ;">
					<path style="fill:#F09B3E;" d="M211.583,123.694l-1.367,0.184c0.063-0.181,0.188-0.325,0.366-0.434l1.367-0.184
						C211.771,123.37,211.646,123.514,211.583,123.694"/>
				</g>
			</g>
			<g style="enable-background:new    ;">
				<defs>
					<path id="SVGID_93_" style="enable-background:new    ;" d="M211.577,124.261l-1.367,0.184
						c-0.055-0.198-0.047-0.387,0.006-0.567l1.367-0.184C211.53,123.874,211.522,124.063,211.577,124.261z"/>
				</defs>
				<clipPath id="SVGID_94_">
					<use xlink:href="#SVGID_93_"  style="overflow:visible;"/>
				</clipPath>
				<g style="clip-path:url(#SVGID_94_);enable-background:new    ;">
					<path style="fill:#F09B3E;" d="M211.577,124.261l-1.367,0.184c-0.055-0.198-0.047-0.387,0.006-0.567l1.367-0.184
						C211.53,123.874,211.522,124.063,211.577,124.261"/>
				</g>
			</g>
			<g style="enable-background:new    ;">
				<defs>
					<path id="SVGID_95_" style="enable-background:new    ;" d="M211.739,130.208l-1.367,0.184
						c0.248-0.034,0.493-0.121,0.735-0.263c0.51-0.291,0.831-0.714,0.954-1.273l1.367-0.184c-0.123,0.559-0.444,0.983-0.954,1.273
						C212.231,130.087,211.987,130.175,211.739,130.208z"/>
				</defs>
				<clipPath id="SVGID_96_">
					<use xlink:href="#SVGID_95_"  style="overflow:visible;"/>
				</clipPath>
				<g style="clip-path:url(#SVGID_96_);enable-background:new    ;">
					<path style="fill:#F09A3D;" d="M211.739,130.208l-1.367,0.184c0.116-0.016,0.232-0.043,0.348-0.083l1.367-0.184
						C211.972,130.165,211.855,130.192,211.739,130.208"/>
					<path style="fill:#F09B3E;" d="M212.087,130.125l-1.367,0.184c0.13-0.044,0.259-0.104,0.388-0.18
						c0.51-0.291,0.831-0.714,0.954-1.273l1.367-0.184c-0.123,0.559-0.444,0.983-0.954,1.273
						C212.346,130.021,212.217,130.081,212.087,130.125"/>
				</g>
			</g>
			<g style="enable-background:new    ;">
				<defs>
					<path id="SVGID_97_" style="enable-background:new    ;" d="M209.638,126.06l1.367-0.184c0.076-0.01,0.153-0.016,0.231-0.016
						c0.204-0.001,0.413,0.033,0.627,0.101c0.549,0.178,0.98,0.536,1.289,1.075c0.308,0.53,0.399,1.078,0.276,1.637l-1.367,0.184
						c0.123-0.559,0.031-1.107-0.276-1.637c-0.309-0.539-0.74-0.897-1.289-1.075c-0.214-0.068-0.423-0.102-0.627-0.101
						C209.791,126.044,209.714,126.049,209.638,126.06z"/>
				</defs>
				<clipPath id="SVGID_98_">
					<use xlink:href="#SVGID_97_"  style="overflow:visible;"/>
				</clipPath>
				<g style="clip-path:url(#SVGID_98_);enable-background:new    ;">
					<path style="fill:#F09B3E;" d="M213.429,128.672l-1.367,0.184c0.123-0.559,0.031-1.107-0.276-1.637
						c-0.309-0.539-0.74-0.897-1.289-1.075c-0.214-0.068-0.423-0.102-0.627-0.101c-0.078,0-0.155,0.005-0.231,0.016l1.367-0.184
						c0.076-0.01,0.153-0.016,0.231-0.016c0.204-0.001,0.413,0.033,0.627,0.101c0.549,0.178,0.98,0.536,1.289,1.075
						C213.46,127.565,213.552,128.114,213.429,128.672"/>
				</g>
			</g>
			<g>
				<path style="fill:#EE9530;" d="M216.068,128.842c0.108,0.197,0.137,0.396,0.084,0.621c-0.063,0.216-0.179,0.378-0.366,0.478
					c-0.134,0.082-0.273,0.123-0.411,0.124c-0.046,0-0.091-0.004-0.135-0.013c-0.189-0.035-0.352-0.133-0.495-0.268
					c-0.32,0.695-0.803,1.227-1.438,1.59c-0.567,0.325-1.148,0.49-1.746,0.492c-0.353,0.001-0.712-0.054-1.079-0.166
					c-0.98-0.293-1.736-0.911-2.261-1.827c-0.534-0.925-0.682-1.887-0.445-2.896c0.229-1,0.791-1.767,1.694-2.284
					c0.514-0.297,1.076-0.449,1.692-0.451c0.136-0.001,0.273,0.006,0.415,0.02c-0.055-0.198-0.047-0.387,0.006-0.567
					c0.063-0.18,0.188-0.325,0.366-0.434c0.116-0.067,0.237-0.1,0.363-0.101c0.076,0,0.156,0.012,0.238,0.035
					c0.225,0.062,0.387,0.196,0.505,0.394L216.068,128.842z M213.429,128.672c0.123-0.559,0.031-1.107-0.276-1.637
					c-0.309-0.539-0.74-0.897-1.289-1.075c-0.214-0.068-0.423-0.102-0.627-0.101c-0.327,0.001-0.643,0.091-0.951,0.269
					c-0.51,0.29-0.814,0.714-0.928,1.273c-0.123,0.559-0.021,1.107,0.286,1.646c0.307,0.539,0.731,0.897,1.261,1.075
					c0.206,0.068,0.41,0.102,0.61,0.101c0.325-0.001,0.645-0.094,0.96-0.278C212.984,129.655,213.306,129.231,213.429,128.672"/>
			</g>
			<g style="enable-background:new    ;">
				<defs>
					<path id="SVGID_99_" style="enable-background:new    ;" d="M211.983,131.835l-1.367,0.184
						c-0.14,0.019-0.281,0.029-0.423,0.029c-0.353,0.001-0.712-0.054-1.079-0.166c-0.979-0.293-1.736-0.911-2.261-1.828
						c-0.534-0.924-0.682-1.887-0.445-2.896c0.229-1,0.791-1.767,1.694-2.284c0.382-0.22,0.79-0.361,1.227-0.42l1.367-0.184
						c-0.437,0.059-0.845,0.2-1.227,0.42c-0.903,0.517-1.466,1.284-1.694,2.284c-0.236,1.009-0.089,1.971,0.445,2.896
						c0.524,0.916,1.28,1.534,2.261,1.827c0.367,0.112,0.727,0.167,1.079,0.166C211.702,131.864,211.843,131.854,211.983,131.835z"
						/>
				</defs>
				<clipPath id="SVGID_100_">
					<use xlink:href="#SVGID_99_"  style="overflow:visible;"/>
				</clipPath>
				<g style="clip-path:url(#SVGID_100_);enable-background:new    ;">
					<path style="fill:#F09B3E;" d="M211.983,131.835l-1.367,0.184c-0.14,0.019-0.281,0.029-0.423,0.029
						c-0.353,0.001-0.712-0.054-1.079-0.166c-0.979-0.293-1.736-0.911-2.261-1.828c-0.534-0.924-0.682-1.887-0.445-2.896
						c0.229-1,0.791-1.767,1.694-2.284c0.19-0.11,0.387-0.2,0.591-0.27l1.367-0.184c-0.204,0.07-0.4,0.16-0.591,0.27
						c-0.903,0.517-1.466,1.284-1.694,2.284c-0.236,1.009-0.089,1.971,0.445,2.896c0.524,0.916,1.28,1.534,2.261,1.827
						c0.367,0.112,0.727,0.167,1.079,0.166C211.702,131.864,211.843,131.854,211.983,131.835"/>
					<path style="fill:#F09A3D;" d="M210.061,124.423l-1.367,0.184c0.205-0.07,0.417-0.12,0.636-0.15l1.367-0.184
						C210.478,124.302,210.266,124.352,210.061,124.423"/>
				</g>
			</g>
		</g>
	</g>
</g>
<g>
</g>
<g>
</g>
<g>
</g>
<g>
</g>
<g>
</g>
<g>
</g>
<g>
</g>
<g>
</g>
<g>
</g>
<g>
</g>
<g>
</g>
<g>
</g>
<g>
</g>
<g>
</g>
<g>
</g>
<g>
</g>
</svg>
